<svg width="100" height="100" viewBox="0 0 100 100" fill="none" xmlns="http://www.w3.org/2000/svg">
<rect width="100" height="100" rx="50" fill="black"/>
<g clip-path="url(#clip0_1023_16274)">
<path d="M51.9666 30.0909C55.0292 26.0208 59.287 26.001 59.287 26.001C59.287 26.001 59.9204 29.8275 56.8778 33.5137C53.6291 37.4497 49.9365 36.8056 49.9365 36.8056C49.9365 36.8056 49.2431 33.7101 51.9666 30.0909ZM50.326 39.4861C51.9016 39.4861 54.8258 37.3024 58.632 37.3024C65.1838 37.3024 67.7613 42.003 67.7613 42.003C67.7613 42.003 62.7202 44.6017 62.7202 50.9074C62.7202 58.0207 69 60.4722 69 60.4722C69 60.4722 64.6102 72.9301 58.6808 72.9301C55.9575 72.9301 53.8402 71.0796 50.9708 71.0796C48.0466 71.0796 45.1447 72.9991 43.2548 72.9991C37.8403 72.9992 31 61.1816 31 51.6822C31 42.3361 36.7899 37.4333 42.2206 37.4333C45.751 37.4333 48.4906 39.4861 50.326 39.4861Z" fill="white"/>
</g>
<defs>
<clipPath id="clip0_1023_16274">
<rect width="38" height="47" fill="white" transform="translate(31 26)"/>
</clipPath>
</defs>
</svg>
