<svg width="215" height="182" viewBox="0 0 215 182" fill="none" xmlns="http://www.w3.org/2000/svg">
<g filter="url(#filter0_d_1023_16484)">
<path d="M207.66 125.716H24.0062C23.5028 125.716 23.0947 126.124 23.0947 126.627V146.303C23.0947 146.807 23.5028 147.215 24.0062 147.215H207.66C208.163 147.215 208.571 146.807 208.571 146.303V126.627C208.571 126.124 208.163 125.716 207.66 125.716Z" fill="white"/>
<path d="M209.469 141.363H22.5073C21.6616 141.363 20.976 142.049 20.976 142.895V148.773C20.976 149.618 21.6616 150.304 22.5073 150.304H209.469C210.314 150.304 211 149.618 211 148.773V142.895C211 142.049 210.314 141.363 209.469 141.363Z" fill="#D7D9DB"/>
<path d="M203.184 43.7023H27.4678C24.8265 43.7023 24.1338 40.0523 26.5907 39.0841L114.45 4.49029C115.013 4.26951 115.639 4.26951 116.202 4.49029L204.059 39.0821C206.515 40.0503 205.823 43.7003 203.181 43.7003L203.184 43.7023Z" fill="url(#paint0_linear_1023_16484)"/>
<path d="M37.0462 48.8193H33.2787V118.149H37.0462V48.8193Z" fill="#EEEEEE"/>
<path d="M42.6973 48.8193H38.9298V118.149H42.6973V48.8193Z" fill="#EEEEEE"/>
<path d="M48.3502 48.8193H44.5827V118.149H48.3502V48.8193Z" fill="#EEEEEE"/>
<path d="M52.4949 45.0498H29.1346V46.0646L32.5254 47.6891H49.1042L52.4949 46.0646V45.0498Z" fill="#EEEEEE"/>
<path d="M52.6835 124.176H29.3232V120.524L32.7139 118.901H49.2928L52.6835 120.524V124.176Z" fill="#EDEDED"/>
<path d="M66.8133 48.8193H63.0458V118.149H66.8133V48.8193Z" fill="#EEEEEE"/>
<path d="M72.4644 48.8193H68.6969V118.149H72.4644V48.8193Z" fill="#EEEEEE"/>
<path d="M78.1177 48.8193H74.3503V118.149H78.1177V48.8193Z" fill="#EEEEEE"/>
<path d="M82.2619 45.0498H58.9016V46.0646L62.2923 47.6891H78.8712L82.2619 46.0646V45.0498Z" fill="#EEEEEE"/>
<path d="M82.4506 124.176H59.0903V120.524L62.481 118.901H79.0599L82.4506 120.524V124.176Z" fill="#EDEDED"/>
<path d="M96.5801 48.8193H92.8126V118.149H96.5801V48.8193Z" fill="#EEEEEE"/>
<path d="M102.232 48.8193H98.4642V118.149H102.232V48.8193Z" fill="#EEEEEE"/>
<path d="M107.883 48.8193H104.115V118.149H107.883V48.8193Z" fill="#EEEEEE"/>
<path d="M112.029 45.0498H88.6666V46.0646L92.0594 47.6891H108.638L112.029 46.0646V45.0498Z" fill="#EEEEEE"/>
<path d="M112.217 124.176H88.857V120.524L92.2477 118.901H108.827L112.217 120.524V124.176Z" fill="#EDEDED"/>
<path d="M126.347 48.8193H122.58V118.149H126.347V48.8193Z" fill="#EEEEEE"/>
<path d="M131.999 48.8193H128.231V118.149H131.999V48.8193Z" fill="#EEEEEE"/>
<path d="M137.65 48.8193H133.883V118.149H137.65V48.8193Z" fill="#EEEEEE"/>
<path d="M141.796 45.0498H118.434V46.0646L121.826 47.6891H138.405L141.796 46.0646V45.0498Z" fill="#EEEEEE"/>
<path d="M141.985 124.176H118.622V120.524L122.015 118.901H138.594L141.985 120.524V124.176Z" fill="url(#paint1_linear_1023_16484)"/>
<path d="M156.114 48.8193H152.347V118.149H156.114V48.8193Z" fill="#EEEEEE"/>
<path d="M161.766 48.8193H157.998V118.149H161.766V48.8193Z" fill="#EEEEEE"/>
<path d="M167.417 48.8193H163.649V118.149H167.417V48.8193Z" fill="#EEEEEE"/>
<path d="M171.563 45.0498H148.2V46.0646L151.593 47.6891H168.172L171.563 46.0646V45.0498Z" fill="#EEEEEE"/>
<path d="M171.752 124.176H148.389V120.524L151.782 118.901H168.361L171.752 120.524V124.176Z" fill="url(#paint2_linear_1023_16484)"/>
<path d="M185.879 48.8193H182.112V118.149H185.879V48.8193Z" fill="#EEEEEE"/>
<path d="M191.532 48.8193H187.765V118.149H191.532V48.8193Z" fill="#EEEEEE"/>
<path d="M197.184 48.8193H193.416V118.149H197.184V48.8193Z" fill="#EEEEEE"/>
<path d="M201.33 45.0498H177.968V46.0646L181.358 47.6891H197.937L201.33 46.0646V45.0498Z" fill="#EEEEEE"/>
<path d="M201.518 124.176H178.156V120.524L181.547 118.901H198.125L201.518 120.524V124.176Z" fill="#EDEDED"/>
<path d="M208.073 125.735H23.7611C23.3931 125.735 23.0947 126.034 23.0947 126.402V129.114C23.0947 129.482 23.3931 129.78 23.7611 129.78H208.073C208.441 129.78 208.74 129.482 208.74 129.114V126.402C208.74 126.034 208.441 125.735 208.073 125.735Z" fill="#D7D9DB"/>
<path d="M94.7271 14.7173H98.2697C99.7139 14.7173 100.765 14.9968 101.423 15.5579C102.082 16.1189 102.412 17.0102 102.412 18.2316C102.412 19.0357 102.238 19.7082 101.889 20.249C101.541 20.7898 101.067 21.1179 100.465 21.2314V21.3266C101.251 21.523 101.816 21.8896 102.165 22.4284C102.513 22.9672 102.687 23.6822 102.687 24.5755C102.687 25.8354 102.351 26.8218 101.677 27.5348C101.002 28.2477 100.079 28.6022 98.9078 28.6022H94.7291V14.7173H94.7271ZM97.1577 20.3016H98.3447C98.8895 20.3016 99.2724 20.1558 99.4932 19.8641C99.7139 19.5725 99.8253 19.139 99.8253 18.5637C99.8253 17.9885 99.6977 17.5753 99.4445 17.3241C99.1913 17.075 98.7923 16.9494 98.2475 16.9494H97.1557V20.3016H97.1577ZM97.1577 22.4568V26.3417H98.4581C98.9969 26.3417 99.3959 26.1777 99.6593 25.8475C99.9226 25.5194 100.054 25.0089 100.054 24.3182C100.054 23.0766 99.5094 22.4568 98.4217 22.4568H97.1577Z" fill="#07121B"/>
<path d="M111.158 28.6028L110.36 25.0986H106.742L105.944 28.6028H103.362L106.799 14.6611H110.303L113.751 28.6028H111.158ZM109.876 22.8098L109.134 19.5811C109.09 19.3846 108.991 18.8924 108.835 18.1045C108.679 17.3166 108.585 16.79 108.555 16.5226C108.472 17.0674 108.369 17.667 108.241 18.3233C108.113 18.9795 107.785 20.4744 107.253 22.8098H109.874H109.876Z" fill="#07121B"/>
<path d="M124.701 28.6032H121.547L117.255 18.5465H117.131C117.289 19.3121 117.368 20.1365 117.368 21.0156V28.6032H114.974V14.7183H118.146L122.402 24.6717H122.507C122.388 24.0073 122.327 23.2153 122.327 22.2978V14.7183H124.701V28.6032Z" fill="#07121B"/>
<path d="M135.802 28.6032H133.048L130.769 22.6684L129.734 23.7035V28.6032H127.151V14.7183H129.734V21.603L130.635 19.5228L132.999 14.7183H135.762L132.552 20.73L135.8 28.6032H135.802Z" fill="#07121B"/>
<path d="M77.7823 38.7076V31.1221H79.0219V38.7076H77.7823Z" fill="#07121B"/>
<path d="M87.3445 38.7076H85.8233L82.0923 32.6634H82.0518L82.0781 33.0017C82.1267 33.6458 82.151 34.2332 82.151 34.7659V38.7096H81.0248V31.124H82.5298L86.2507 37.1378H86.2811C86.275 37.0588 86.2608 36.7691 86.2406 36.2688C86.2203 35.7685 86.2102 35.3796 86.2102 35.0981V31.124H87.3465V38.7096L87.3445 38.7076Z" fill="#07121B"/>
<path d="M93.7208 36.6491C93.7208 37.3236 93.4777 37.8522 92.9896 38.2371C92.5014 38.6219 91.8289 38.8123 90.9721 38.8123C90.1153 38.8123 89.4125 38.6786 88.8656 38.4133V37.2405C89.212 37.4026 89.5786 37.5302 89.9675 37.6254C90.3564 37.7186 90.7189 37.7651 91.0552 37.7651C91.5454 37.7651 91.9079 37.672 92.1429 37.4856C92.3758 37.2993 92.4933 37.0481 92.4933 36.7342C92.4933 36.4506 92.386 36.2095 92.1712 36.0131C91.9565 35.8166 91.515 35.5816 90.8425 35.3122C90.1498 35.0327 89.6637 34.7127 89.3801 34.3521C89.0965 33.9916 88.9547 33.5602 88.9547 33.0558C88.9547 32.4238 89.1796 31.9256 89.6292 31.561C90.0789 31.1984 90.6825 31.0161 91.44 31.0161C92.1976 31.0161 92.8903 31.1761 93.6094 31.4941L93.2144 32.5069C92.5399 32.2233 91.9383 32.0815 91.4097 32.0815C91.0086 32.0815 90.7048 32.1686 90.4961 32.3428C90.2895 32.517 90.1842 32.7479 90.1842 33.0356C90.1842 33.232 90.2247 33.4022 90.3078 33.5419C90.3908 33.6817 90.5265 33.8134 90.7169 33.9389C90.9073 34.0625 91.2496 34.2286 91.7439 34.4311C92.3009 34.662 92.708 34.8788 92.9693 35.0793C93.2286 35.2798 93.419 35.5067 93.5405 35.7599C93.662 36.0131 93.7228 36.3108 93.7228 36.6531L93.7208 36.6491Z" fill="#07121B"/>
<path d="M97.8104 38.7076H96.5708V32.1855H94.3407V31.1221H100.043V32.1855H97.8124V38.7076H97.8104Z" fill="#07121B"/>
<path d="M105.908 38.7077L105.151 36.6012H102.25L101.509 38.7077H100.2L103.038 31.0918H104.387L107.225 38.7077H105.906H105.908ZM104.825 35.5317L104.114 33.4677C104.061 33.33 103.99 33.1112 103.899 32.8135C103.808 32.5157 103.745 32.299 103.708 32.1592C103.615 32.5846 103.48 33.0505 103.299 33.5548L102.615 35.5317H104.825Z" fill="#07121B"/>
<path d="M108.227 38.7076V31.1221H109.467V37.6442H112.68V38.7076H108.227Z" fill="#07121B"/>
<path d="M113.986 38.7076V31.1221H115.226V37.6442H118.438V38.7076H113.986Z" fill="#07121B"/>
<path d="M123.026 38.7077L120.826 32.3719H120.784C120.843 33.3138 120.873 34.1949 120.873 35.0172V38.7057H119.747V31.1201H121.495L123.601 37.1541H123.632L125.801 31.1201H127.555V38.7057H126.362V34.9544C126.362 34.5777 126.372 34.0855 126.391 33.4819C126.409 32.8762 126.425 32.5096 126.439 32.382H126.397L124.118 38.7057H123.024L123.026 38.7077Z" fill="#07121B"/>
<path d="M133.842 38.7076H129.552V31.1221H133.842V32.1693H130.792V34.2333H133.65V35.2703H130.792V37.6523H133.842V38.7056V38.7076Z" fill="#07121B"/>
<path d="M141.802 38.7076H140.283L136.552 32.6634H136.51L136.536 33.0017C136.585 33.6458 136.609 34.2332 136.609 34.7659V38.7096H135.483V31.124H136.988L140.709 37.1378H140.739C140.733 37.0588 140.719 36.7691 140.696 36.2688C140.674 35.7685 140.666 35.3796 140.666 35.0981V31.124H141.802V38.7096V38.7076Z" fill="#07121B"/>
<path d="M146.425 38.7076H145.185V32.1855H142.955V31.1221H148.657V32.1855H146.427V38.7076H146.425Z" fill="#07121B"/>
<path d="M154.193 36.6491C154.193 37.3236 153.95 37.8522 153.462 38.2371C152.973 38.6219 152.301 38.8123 151.444 38.8123C150.587 38.8123 149.884 38.6786 149.338 38.4133V37.2405C149.684 37.4026 150.051 37.5302 150.439 37.6254C150.828 37.7206 151.191 37.7651 151.527 37.7651C152.017 37.7651 152.38 37.672 152.615 37.4856C152.848 37.2993 152.965 37.0481 152.965 36.7342C152.965 36.4506 152.858 36.2095 152.643 36.0131C152.429 35.8166 151.987 35.5816 151.314 35.3122C150.622 35.0327 150.136 34.7127 149.852 34.3521C149.568 33.9916 149.427 33.5602 149.427 33.0558C149.427 32.4238 149.652 31.9256 150.101 31.561C150.551 31.1984 151.154 31.0161 151.912 31.0161C152.67 31.0161 153.362 31.1761 154.081 31.4941L153.686 32.5069C153.012 32.2233 152.41 32.0815 151.882 32.0815C151.481 32.0815 151.177 32.1686 150.968 32.3428C150.759 32.517 150.656 32.7479 150.656 33.0356C150.656 33.232 150.699 33.4022 150.782 33.5419C150.865 33.6817 151.001 33.8134 151.191 33.9389C151.381 34.0645 151.724 34.2286 152.218 34.4311C152.775 34.662 153.182 34.8788 153.441 35.0793C153.701 35.2798 153.891 35.5067 154.012 35.7599C154.134 36.0131 154.195 36.3108 154.195 36.6531L154.193 36.6491Z" fill="#07121B"/>
<path d="M170.141 65.3979H128.31C125.216 65.3979 122.707 67.9063 122.707 71.0005V151.41C122.707 154.504 125.216 157.012 128.31 157.012H170.141C173.235 157.012 175.744 154.504 175.744 151.41V71.0005C175.744 67.9063 173.235 65.3979 170.141 65.3979Z" fill="url(#paint3_linear_1023_16484)"/>
<path d="M167.713 68.2456H130.735C127.641 68.2456 125.132 70.754 125.132 73.8482V148.608C125.132 151.702 127.641 154.211 130.735 154.211H167.713C170.807 154.211 173.315 151.702 173.315 148.608V73.8482C173.315 70.754 170.807 68.2456 167.713 68.2456Z" fill="url(#paint4_linear_1023_16484)"/>
<path d="M163.364 68.1216H135.398C135.059 68.1216 134.784 68.3964 134.784 68.7353V70.2848C134.784 70.6238 135.059 70.8986 135.398 70.8986H163.364C163.703 70.8986 163.978 70.6238 163.978 70.2848V68.7353C163.978 68.3964 163.703 68.1216 163.364 68.1216Z" fill="url(#paint5_linear_1023_16484)"/>
<path d="M158.396 68.4941H141.047C140.923 68.4941 140.822 68.5948 140.822 68.719V69.2841C140.822 69.4083 140.923 69.5089 141.047 69.5089H158.396C158.52 69.5089 158.62 69.4083 158.62 69.2841V68.719C158.62 68.5948 158.52 68.4941 158.396 68.4941Z" fill="url(#paint6_linear_1023_16484)"/>
<path d="M156.481 106.951H142.482C140.158 106.951 138.273 108.836 138.273 111.16V111.211C138.273 113.535 140.158 115.42 142.482 115.42H156.481C158.805 115.42 160.69 113.535 160.69 111.211V111.16C160.69 108.836 158.805 106.951 156.481 106.951Z" fill="url(#paint7_linear_1023_16484)"/>
<path d="M143.189 108.802C143.471 108.746 143.981 108.701 144.48 108.701C145.136 108.701 145.539 108.78 145.869 109.011C146.171 109.191 146.373 109.507 146.373 109.918C146.373 110.364 146.092 110.775 145.567 110.97V110.984C146.078 111.114 146.548 111.517 146.548 112.187C146.548 112.619 146.361 112.957 146.08 113.188C145.733 113.489 145.164 113.641 144.279 113.641C143.789 113.641 143.414 113.605 143.191 113.577V108.802H143.189ZM144.068 110.719H144.522C145.134 110.719 145.48 110.431 145.48 110.02C145.48 109.566 145.134 109.357 144.573 109.357C144.313 109.357 144.162 109.372 144.068 109.394V110.719ZM144.068 112.951C144.184 112.965 144.336 112.973 144.536 112.973C145.105 112.973 145.61 112.756 145.61 112.159C145.61 111.598 145.12 111.367 144.508 111.367H144.068V112.951Z" fill="white"/>
<path d="M148.217 108.738V111.568C148.217 112.518 148.614 112.957 149.211 112.957C149.851 112.957 150.234 112.518 150.234 111.568V108.738H151.119V111.511C151.119 113.01 150.35 113.672 149.183 113.672C148.016 113.672 147.332 113.047 147.332 111.519V108.738H148.217Z" fill="white"/>
<path d="M153.236 113.593V111.57L151.703 108.74H152.711L153.295 109.986C153.461 110.346 153.582 110.62 153.712 110.95H153.726C153.848 110.64 153.985 110.338 154.151 109.986L154.735 108.74H155.735L154.123 111.55V113.595H153.238L153.236 113.593Z" fill="white"/>
<g opacity="0.8">
<path opacity="0.8" d="M160.791 83.1316C160.65 82.9574 160.427 82.8845 160.192 82.8906L138.717 83.3403L138.174 81.6165C138.099 81.3755 137.873 81.2236 137.617 81.2297L134.668 81.3066C134.352 81.3147 134.095 81.5355 134.095 81.8495C134.095 82.1634 134.35 82.3721 134.668 82.364L137.188 82.3052L141.747 96.8748C141.824 97.1199 142.055 97.288 142.315 97.292L157.388 97.4946C157.743 97.4986 158.029 97.2778 158.029 96.9436C158.029 96.6094 157.741 96.3805 157.388 96.3765L142.754 96.2185L141.579 92.4348L157.66 92.4591C157.99 92.4591 158.28 92.2444 158.371 91.9447L160.909 83.7373C160.976 83.5226 160.931 83.3038 160.789 83.1276L160.791 83.1316Z" fill="white"/>
<path opacity="0.8" d="M144.52 98.1927C143.28 98.1724 142.276 99.1386 142.276 100.344C142.276 101.549 143.278 102.558 144.52 102.59C145.768 102.622 146.788 101.658 146.788 100.439C146.788 99.2196 145.768 98.213 144.52 98.1927ZM144.52 101.417C143.94 101.403 143.471 100.933 143.471 100.37C143.471 99.807 143.94 99.3553 144.52 99.3655C145.101 99.3756 145.575 99.8455 145.575 100.413C145.575 100.98 145.101 101.429 144.52 101.417Z" fill="white"/>
<path opacity="0.8" d="M154.569 98.3489C153.266 98.3287 152.213 99.3171 152.213 100.553C152.213 101.788 153.266 102.819 154.569 102.854C155.879 102.888 156.951 101.9 156.951 100.652C156.951 99.4042 155.879 98.3692 154.569 98.3489ZM154.569 101.653C153.961 101.638 153.467 101.156 153.467 100.579C153.467 100.002 153.961 99.5399 154.569 99.5501C155.178 99.5622 155.677 100.042 155.677 100.624C155.677 101.205 155.178 101.667 154.569 101.653Z" fill="white"/>
</g>
<path d="M191.467 117.779C197.76 111.486 197.76 101.282 191.467 94.9887C185.173 88.6954 174.97 88.6954 168.677 94.9887C162.383 101.282 162.383 111.486 168.677 117.779C174.97 124.072 185.173 124.072 191.467 117.779Z" fill="url(#paint8_linear_1023_16484)"/>
<path d="M195.454 108.889C196.832 100.396 191.065 92.394 182.573 91.0155C174.08 89.637 166.078 95.404 164.7 103.896C163.321 112.389 169.088 120.391 177.581 121.769C186.073 123.148 194.075 117.381 195.454 108.889Z" fill="url(#paint9_linear_1023_16484)"/>
<path d="M167.224 100.369C167.156 100.369 167.085 100.353 167.02 100.32C166.795 100.207 166.706 99.9334 166.819 99.7086C169.359 94.6752 174.437 91.5498 180.072 91.5498C180.972 91.5498 181.871 91.6308 182.748 91.7908C182.995 91.8354 183.159 92.0724 183.115 92.3195C183.07 92.5666 182.831 92.7307 182.586 92.6861C181.764 92.5362 180.917 92.4593 180.072 92.4593C174.784 92.4593 170.018 95.3942 167.632 100.12C167.551 100.278 167.39 100.369 167.224 100.369Z" fill="white"/>
<path opacity="0.78" d="M193.323 109.413C194.806 102.283 190.228 95.3008 183.098 93.8178C175.969 92.3348 168.986 96.9124 167.503 104.042C166.02 111.172 170.598 118.154 177.728 119.637C184.858 121.12 191.84 116.543 193.323 109.413Z" fill="white"/>
<path d="M179.118 116.527V115.093C177.623 115.032 176.143 114.679 175.093 114.22C174.719 114.056 174.526 113.634 174.636 113.239L175 111.902C175.134 111.412 175.667 111.159 176.137 111.356C177.18 111.793 178.466 112.137 179.853 112.137C181.241 112.137 182.367 111.649 182.367 110.649C182.367 109.745 181.537 109.208 179.535 108.672C176.679 107.89 174.628 106.646 174.628 104.131C174.628 101.86 176.289 100.126 179.169 99.6622V98.2281C179.169 97.7663 179.544 97.3916 180.005 97.3916H180.848C181.31 97.3916 181.685 97.7663 181.685 98.2281V99.5164C183.068 99.5711 184.075 99.808 184.875 100.09C185.284 100.233 185.509 100.675 185.395 101.094L185.061 102.33C184.931 102.806 184.423 103.067 183.961 102.893C183.226 102.615 182.185 102.326 180.832 102.326C179.122 102.326 178.634 103.035 178.634 103.669C178.634 104.451 179.659 104.987 181.881 105.67C185.055 106.622 186.374 107.941 186.374 110.308C186.374 112.482 184.763 114.434 181.638 114.922V116.529C181.638 116.991 181.263 117.365 180.801 117.365H179.959C179.497 117.365 179.122 116.991 179.122 116.529L179.118 116.527Z" fill="url(#paint10_linear_1023_16484)"/>
<path d="M195.612 124.706H164.533C164.06 124.706 163.676 125.09 163.676 125.563V129.486C163.676 129.959 164.06 130.343 164.533 130.343H195.612C196.086 130.343 196.469 129.959 196.469 129.486V125.563C196.469 125.09 196.086 124.706 195.612 124.706Z" fill="url(#paint11_linear_1023_16484)"/>
<path d="M195.612 130.967H164.533C164.06 130.967 163.676 131.35 163.676 131.824V135.747C163.676 136.22 164.06 136.604 164.533 136.604H195.612C196.086 136.604 196.469 136.22 196.469 135.747V131.824C196.469 131.35 196.086 130.967 195.612 130.967Z" fill="url(#paint12_linear_1023_16484)"/>
<path d="M195.612 137.224H164.533C164.06 137.224 163.676 137.607 163.676 138.08V142.004C163.676 142.477 164.06 142.861 164.533 142.861H195.612C196.086 142.861 196.469 142.477 196.469 142.004V138.08C196.469 137.607 196.086 137.224 195.612 137.224Z" fill="url(#paint13_linear_1023_16484)"/>
<path d="M195.612 143.485H164.533C164.06 143.485 163.676 143.869 163.676 144.342V148.266C163.676 148.739 164.06 149.122 164.533 149.122H195.612C196.086 149.122 196.469 148.739 196.469 148.266V144.342C196.469 143.869 196.086 143.485 195.612 143.485Z" fill="url(#paint14_linear_1023_16484)"/>
<path d="M195.612 149.746H164.533C164.06 149.746 163.676 150.13 163.676 150.603V154.526C163.676 155 164.06 155.383 164.533 155.383H195.612C196.086 155.383 196.469 155 196.469 154.526V150.603C196.469 150.13 196.086 149.746 195.612 149.746Z" fill="url(#paint15_linear_1023_16484)"/>
<path d="M195.612 156.006H164.533C164.06 156.006 163.676 156.389 163.676 156.863V160.786C163.676 161.259 164.06 161.643 164.533 161.643H195.612C196.086 161.643 196.469 161.259 196.469 160.786V156.863C196.469 156.389 196.086 156.006 195.612 156.006Z" fill="url(#paint16_linear_1023_16484)"/>
<path d="M136.084 122.266L134.962 152.44L134.787 157.113C134.779 157.723 134.273 158.215 133.661 158.207L73.645 157.392C73.0354 157.384 72.5411 156.878 72.5492 156.268L72.5452 151.593L72.5189 121.772C72.527 121.162 73.2622 119.981 74.5768 120.088L133.252 119.367C134.018 119.359 134.755 119.663 135.29 120.212C135.824 120.759 136.112 121.502 136.084 122.268V122.266Z" fill="url(#paint17_linear_1023_16484)"/>
<path d="M133.333 156.149C133.325 156.718 132.843 157.178 132.262 157.17L75.0893 156.394C74.5079 156.386 74.038 155.914 74.0461 155.345L74.0076 123.153C74.0157 122.584 74.7145 121.482 75.9683 121.583L131.863 120.925C132.592 120.917 133.295 121.2 133.803 121.713C134.313 122.225 134.587 122.918 134.558 123.631L133.331 156.149H133.333Z" fill="url(#paint18_linear_1023_16484)"/>
<path d="M132.244 157.526C132.244 157.526 132.229 157.526 132.223 157.526L125.823 157.439C125.705 157.439 125.612 157.342 125.614 157.225C125.614 157.107 125.707 157.012 125.829 157.016L132.229 157.103H132.246C132.997 157.103 133.74 156.372 133.75 155.614L134.016 136.04C134.016 135.922 134.111 135.831 134.231 135.831C134.348 135.831 134.441 135.928 134.439 136.046L134.174 155.62C134.16 156.607 133.226 157.526 132.246 157.526H132.244Z" fill="white"/>
<path d="M73.89 135.433H73.888C73.7705 135.433 73.6773 135.336 73.6794 135.219L73.8394 123.485C73.8576 122.183 74.8764 121.093 76.0715 121.093C76.0796 121.093 76.0897 121.093 76.0978 121.093L81.1819 121.162C81.2994 121.162 81.3925 121.259 81.3905 121.376C81.3905 121.494 81.2913 121.581 81.1758 121.585L76.0917 121.516H76.0715C75.1195 121.516 74.2749 122.434 74.2607 123.491L74.1007 135.225C74.1007 135.34 74.0055 135.433 73.89 135.433Z" fill="white"/>
<path d="M78.7233 134.378L78.6465 140.016C78.6382 140.629 79.1283 141.133 79.7413 141.141L87.156 141.242C87.769 141.25 88.2727 140.76 88.281 140.147L88.3578 134.509C88.3661 133.896 87.876 133.392 87.263 133.384L79.8483 133.283C79.2353 133.274 78.7316 133.765 78.7233 134.378Z" fill="url(#paint19_linear_1023_16484)"/>
<path opacity="0.8" d="M84.1601 138.869H84.152L82.0373 138.84C81.8915 138.84 81.7538 138.78 81.6525 138.674C81.5512 138.569 81.4945 138.431 81.4965 138.283L81.5208 136.422C81.5249 136.12 81.77 135.873 82.0778 135.881L84.1925 135.909C84.4943 135.913 84.7373 136.163 84.7333 136.466L84.709 138.328C84.7049 138.628 84.4598 138.869 84.1601 138.869ZM82.0718 136.304C82.0394 136.304 82.0069 136.317 81.9847 136.341C81.9604 136.365 81.9462 136.396 81.9462 136.43L81.9219 138.291C81.9219 138.326 81.934 138.356 81.9583 138.381C81.9826 138.405 82.013 138.419 82.0475 138.419L84.1621 138.447C84.2269 138.451 84.2877 138.393 84.2897 138.324L84.314 136.462C84.314 136.394 84.2593 136.335 84.1904 136.335L82.0758 136.306L82.0718 136.304Z" fill="white"/>
<path d="M81.7293 137.063H81.7273L78.685 137.022C78.5675 137.022 78.4743 136.925 78.4764 136.807C78.4764 136.69 78.5776 136.595 78.6911 136.599L81.7334 136.639C81.8509 136.639 81.944 136.736 81.942 136.854C81.942 136.969 81.8468 137.063 81.7314 137.063H81.7293Z" fill="white"/>
<path d="M81.7192 137.822H81.7172L78.6748 137.782C78.5574 137.782 78.4642 137.685 78.4662 137.567C78.4662 137.45 78.5634 137.358 78.6809 137.358L81.7232 137.399C81.8407 137.399 81.9339 137.496 81.9319 137.614C81.9319 137.729 81.8367 137.822 81.7212 137.822H81.7192Z" fill="white"/>
<path d="M88.3206 137.151H88.3186L85.0231 137.107C84.9056 137.107 84.8124 137.01 84.8144 136.892C84.8144 136.775 84.9137 136.686 85.0291 136.684L88.3246 136.728C88.4421 136.728 88.5353 136.825 88.5333 136.943C88.5333 137.058 88.4381 137.151 88.3226 137.151H88.3206Z" fill="white"/>
<path d="M88.3105 137.912H88.3085L85.013 137.868C84.8955 137.868 84.8023 137.77 84.8044 137.653C84.8044 137.535 84.8996 137.448 85.0191 137.444L88.3146 137.489C88.4321 137.489 88.5252 137.586 88.5232 137.704C88.5232 137.819 88.428 137.912 88.3126 137.912H88.3105Z" fill="white"/>
<path d="M82.4302 136.323C82.333 136.323 82.2459 136.257 82.2236 136.157L81.6079 133.39C81.5815 133.277 81.6545 133.164 81.7679 133.137C81.8813 133.111 81.9947 133.184 82.0211 133.297L82.6368 136.064C82.6632 136.178 82.5902 136.291 82.4768 136.317C82.4606 136.321 82.4464 136.323 82.4302 136.323Z" fill="white"/>
<path d="M84.1986 136.347C84.1804 136.347 84.1642 136.345 84.146 136.341C84.0325 136.311 83.9657 136.195 83.9941 136.084L84.7091 133.333C84.7394 133.22 84.8529 133.153 84.9663 133.181C85.0797 133.212 85.1466 133.327 85.1182 133.439L84.4032 136.189C84.3789 136.284 84.2918 136.347 84.1986 136.347Z" fill="white"/>
<path d="M81.707 141.468C81.6908 141.468 81.6726 141.466 81.6564 141.461C81.543 141.433 81.4741 141.318 81.5025 141.204L82.1932 138.454C82.2215 138.34 82.335 138.273 82.4504 138.3C82.5638 138.328 82.6327 138.443 82.6044 138.557L81.9137 141.308C81.8893 141.403 81.8043 141.468 81.7091 141.468H81.707Z" fill="white"/>
<path d="M84.8058 141.51C84.7106 141.51 84.6235 141.443 84.5992 141.346L83.9592 138.577C83.9328 138.464 84.0037 138.35 84.1172 138.324C84.2306 138.298 84.344 138.368 84.3703 138.482L85.0104 141.251C85.0367 141.364 84.9659 141.478 84.8524 141.504C84.8362 141.508 84.82 141.51 84.8038 141.51H84.8058Z" fill="white"/>
<path d="M77.5699 125.947L77.5679 126.099C77.558 126.827 78.1402 127.425 78.8684 127.435L87.1318 127.547C87.8599 127.557 88.4583 126.975 88.4682 126.247L88.4703 126.095C88.4802 125.367 87.8979 124.768 87.1697 124.759L78.9064 124.646C78.1782 124.636 77.5799 125.218 77.5699 125.947Z" fill="url(#paint20_linear_1023_16484)"/>
<path d="M77.2973 145.933L77.2975 145.914C77.307 145.22 77.8777 144.664 78.5724 144.674L87.7188 144.798C88.4135 144.808 88.9688 145.379 88.9594 146.073L88.9591 146.091C88.9497 146.786 88.379 147.342 87.6843 147.332L78.5379 147.208C77.8432 147.198 77.2878 146.627 77.2973 145.933Z" fill="url(#paint21_linear_1023_16484)"/>
<path d="M90.4802 146.113L90.4804 146.095C90.4899 145.4 91.0606 144.845 91.7553 144.854L100.902 144.979C101.596 144.988 102.152 145.559 102.142 146.254L102.142 146.274C102.133 146.969 101.562 147.524 100.867 147.515L91.7207 147.39C91.0261 147.381 90.4707 146.81 90.4801 146.115L90.4802 146.113Z" fill="url(#paint22_linear_1023_16484)"/>
<path d="M103.663 146.294L103.664 146.274C103.673 145.579 104.244 145.024 104.938 145.033L114.085 145.158C114.78 145.167 115.335 145.738 115.325 146.433L115.325 146.451C115.316 147.146 114.745 147.701 114.05 147.691L104.904 147.567C104.209 147.557 103.654 146.987 103.663 146.292L103.663 146.294Z" fill="url(#paint23_linear_1023_16484)"/>
<path d="M117.099 146.475L117.1 146.456C117.109 145.762 117.68 145.206 118.374 145.216L127.521 145.34C128.215 145.35 128.771 145.921 128.761 146.615L128.761 146.633C128.752 147.328 128.181 147.884 127.486 147.874L118.34 147.75C117.645 147.74 117.09 147.169 117.099 146.475Z" fill="url(#paint24_linear_1023_16484)"/>
<g opacity="0.8">
<path opacity="0.8" d="M78.4891 151.533L78.4895 151.504C78.497 150.951 78.9507 150.51 79.5036 150.517L96.5164 150.749C97.0693 150.757 97.5108 151.21 97.5033 151.763L97.5029 151.792C97.4954 152.344 97.0417 152.786 96.4888 152.778L79.476 152.547C78.9231 152.539 78.4816 152.086 78.4891 151.533Z" fill="url(#paint25_linear_1023_16484)"/>
<path opacity="0.8" d="M117.791 151.56L117.792 151.532C117.799 150.979 118.253 150.537 118.806 150.545L126.186 150.645C126.739 150.653 127.18 151.106 127.173 151.659L127.172 151.688C127.165 152.241 126.711 152.682 126.158 152.675L118.778 152.574C118.225 152.567 117.784 152.113 117.791 151.56Z" fill="url(#paint26_linear_1023_16484)"/>
</g>
<path d="M181.342 137.285C180.388 141.64 178.037 143.423 175.954 142.967C173.824 142.501 172.58 139.896 173.425 135.92C174.279 132.011 176.505 129.801 178.847 130.313C181.257 130.842 182.157 133.568 181.344 137.287L181.342 137.285ZM174.101 151.652L187.599 132.228L189.238 132.586L175.74 152.011L174.101 151.652ZM175.653 136.273C175.108 138.651 175.357 140.538 176.503 140.787C177.65 141.039 178.573 139.509 179.122 136.998C179.623 134.709 179.558 132.764 178.318 132.493C177.148 132.238 176.159 133.951 175.651 136.273H175.653ZM189.951 148.16C189.005 152.483 186.669 154.302 184.563 153.842C182.456 153.38 181.188 150.771 182.063 146.767C182.912 142.89 185.144 140.648 187.461 141.154C189.872 141.683 190.765 144.441 189.951 148.16ZM184.261 147.148C183.722 149.495 183.965 151.413 185.112 151.662C186.283 151.918 187.182 150.384 187.731 147.873C188.239 145.553 188.166 143.639 186.927 143.368C185.756 143.113 184.768 144.826 184.259 147.148H184.261Z" fill="url(#paint27_linear_1023_16484)"/>
</g>
<defs>
<filter id="filter0_d_1023_16484" x="0.976013" y="0.324707" width="214.024" height="181.318" filterUnits="userSpaceOnUse" color-interpolation-filters="sRGB">
<feFlood flood-opacity="0" result="BackgroundImageFix"/>
<feColorMatrix in="SourceAlpha" type="matrix" values="0 0 0 0 0 0 0 0 0 0 0 0 0 0 0 0 0 0 127 0" result="hardAlpha"/>
<feOffset dx="-8" dy="8"/>
<feGaussianBlur stdDeviation="6"/>
<feComposite in2="hardAlpha" operator="out"/>
<feColorMatrix type="matrix" values="0 0 0 0 0 0 0 0 0 0 0 0 0 0 0 0 0 0 0.25 0"/>
<feBlend mode="normal" in2="BackgroundImageFix" result="effect1_dropShadow_1023_16484"/>
<feBlend mode="normal" in="SourceGraphic" in2="effect1_dropShadow_1023_16484" result="shape"/>
</filter>
<linearGradient id="paint0_linear_1023_16484" x1="176.556" y1="-79.911" x2="47.8971" y2="174.77" gradientUnits="userSpaceOnUse">
<stop stop-color="white"/>
<stop offset="1" stop-color="#CCCCCC"/>
</linearGradient>
<linearGradient id="paint1_linear_1023_16484" x1="221.112" y1="-57.4037" x2="92.4528" y2="197.277" gradientUnits="userSpaceOnUse">
<stop stop-color="#66CDF3"/>
<stop offset="1" stop-color="#4A5AA8"/>
</linearGradient>
<linearGradient id="paint2_linear_1023_16484" x1="244.826" y1="-45.4227" x2="116.168" y2="209.258" gradientUnits="userSpaceOnUse">
<stop stop-color="#66CDF3"/>
<stop offset="1" stop-color="#4A5AA8"/>
</linearGradient>
<linearGradient id="paint3_linear_1023_16484" x1="123.574" y1="58.4504" x2="175.186" y2="164.6" gradientUnits="userSpaceOnUse">
<stop stop-color="#293882"/>
<stop offset="1" stop-color="#171042"/>
</linearGradient>
<linearGradient id="paint4_linear_1023_16484" x1="147.755" y1="108.373" x2="204.61" y2="218.975" gradientUnits="userSpaceOnUse">
<stop stop-color="#66CDF3"/>
<stop offset="1" stop-color="#4A5AA8"/>
</linearGradient>
<linearGradient id="paint5_linear_1023_16484" x1="147.575" y1="65.9948" x2="156.824" y2="83.9895" gradientUnits="userSpaceOnUse">
<stop stop-color="#293882"/>
<stop offset="1" stop-color="#171042"/>
</linearGradient>
<linearGradient id="paint6_linear_1023_16484" x1="157.719" y1="55.6868" x2="130.666" y2="100.716" gradientUnits="userSpaceOnUse">
<stop stop-color="#66CDF3"/>
<stop offset="1" stop-color="#4A5AA8"/>
</linearGradient>
<linearGradient id="paint7_linear_1023_16484" x1="151.156" y1="82.728" x2="149.462" y2="111.507" gradientUnits="userSpaceOnUse">
<stop stop-color="#F9EE4A"/>
<stop offset="1" stop-color="#DA3D66"/>
</linearGradient>
<linearGradient id="paint8_linear_1023_16484" x1="158.021" y1="131.98" x2="179.635" y2="106.892" gradientUnits="userSpaceOnUse">
<stop stop-color="#F9EE4A"/>
<stop offset="1" stop-color="#DA3D66"/>
</linearGradient>
<linearGradient id="paint9_linear_1023_16484" x1="191.861" y1="88.5928" x2="127.945" y2="185.153" gradientUnits="userSpaceOnUse">
<stop stop-color="#F9EE4A"/>
<stop offset="1" stop-color="#DA3D66"/>
</linearGradient>
<linearGradient id="paint10_linear_1023_16484" x1="189.943" y1="91.3596" x2="155.908" y2="148.497" gradientUnits="userSpaceOnUse">
<stop stop-color="#F9EE4A"/>
<stop offset="1" stop-color="#DA3D66"/>
</linearGradient>
<linearGradient id="paint11_linear_1023_16484" x1="189.416" y1="112.539" x2="165.955" y2="150.161" gradientUnits="userSpaceOnUse">
<stop stop-color="#F9EE4A"/>
<stop offset="1" stop-color="#DA3D66"/>
</linearGradient>
<linearGradient id="paint12_linear_1023_16484" x1="189.416" y1="118.8" x2="165.955" y2="156.421" gradientUnits="userSpaceOnUse">
<stop stop-color="#F9EE4A"/>
<stop offset="1" stop-color="#DA3D66"/>
</linearGradient>
<linearGradient id="paint13_linear_1023_16484" x1="189.416" y1="125.058" x2="165.955" y2="162.68" gradientUnits="userSpaceOnUse">
<stop stop-color="#F9EE4A"/>
<stop offset="1" stop-color="#DA3D66"/>
</linearGradient>
<linearGradient id="paint14_linear_1023_16484" x1="189.416" y1="131.318" x2="165.955" y2="168.94" gradientUnits="userSpaceOnUse">
<stop stop-color="#F9EE4A"/>
<stop offset="1" stop-color="#DA3D66"/>
</linearGradient>
<linearGradient id="paint15_linear_1023_16484" x1="189.416" y1="137.579" x2="165.955" y2="175.201" gradientUnits="userSpaceOnUse">
<stop stop-color="#F9EE4A"/>
<stop offset="1" stop-color="#DA3D66"/>
</linearGradient>
<linearGradient id="paint16_linear_1023_16484" x1="189.416" y1="143.841" x2="165.955" y2="181.463" gradientUnits="userSpaceOnUse">
<stop stop-color="#F9EE4A"/>
<stop offset="1" stop-color="#DA3D66"/>
</linearGradient>
<linearGradient id="paint17_linear_1023_16484" x1="98.2039" y1="155.072" x2="112.956" y2="112.741" gradientUnits="userSpaceOnUse">
<stop stop-color="#CB266E"/>
<stop offset="1" stop-color="#4C286E"/>
</linearGradient>
<linearGradient id="paint18_linear_1023_16484" x1="94.4086" y1="147.761" x2="157.155" y2="92.3267" gradientUnits="userSpaceOnUse">
<stop stop-color="#CB266E"/>
<stop offset="1" stop-color="#4C286E"/>
</linearGradient>
<linearGradient id="paint19_linear_1023_16484" x1="105.195" y1="129.35" x2="80.429" y2="138.389" gradientUnits="userSpaceOnUse">
<stop stop-color="#E92857"/>
<stop offset="1" stop-color="#F8C342"/>
</linearGradient>
<linearGradient id="paint20_linear_1023_16484" x1="113.516" y1="-35.3327" x2="95.0081" y2="62.6458" gradientUnits="userSpaceOnUse">
<stop stop-color="#8D50A0"/>
<stop offset="1" stop-color="#EF4A7B"/>
</linearGradient>
<linearGradient id="paint21_linear_1023_16484" x1="117.253" y1="-34.6292" x2="98.7455" y2="63.3512" gradientUnits="userSpaceOnUse">
<stop stop-color="#8D50A0"/>
<stop offset="1" stop-color="#EF4A7B"/>
</linearGradient>
<linearGradient id="paint22_linear_1023_16484" x1="130.013" y1="-32.2206" x2="111.505" y2="65.7601" gradientUnits="userSpaceOnUse">
<stop stop-color="#8D50A0"/>
<stop offset="1" stop-color="#EF4A7B"/>
</linearGradient>
<linearGradient id="paint23_linear_1023_16484" x1="142.777" y1="-29.809" x2="124.269" y2="68.1716" gradientUnits="userSpaceOnUse">
<stop stop-color="#8D50A0"/>
<stop offset="1" stop-color="#EF4A7B"/>
</linearGradient>
<linearGradient id="paint24_linear_1023_16484" x1="155.783" y1="-27.3533" x2="137.277" y2="70.6253" gradientUnits="userSpaceOnUse">
<stop stop-color="#8D50A0"/>
<stop offset="1" stop-color="#EF4A7B"/>
</linearGradient>
<linearGradient id="paint25_linear_1023_16484" x1="122.984" y1="-33.5497" x2="104.476" y2="64.4308" gradientUnits="userSpaceOnUse">
<stop stop-color="#8D50A0"/>
<stop offset="1" stop-color="#EF4A7B"/>
</linearGradient>
<linearGradient id="paint26_linear_1023_16484" x1="156.273" y1="-27.2603" x2="137.765" y2="70.7185" gradientUnits="userSpaceOnUse">
<stop stop-color="#8D50A0"/>
<stop offset="1" stop-color="#EF4A7B"/>
</linearGradient>
<linearGradient id="paint27_linear_1023_16484" x1="179.799" y1="147.696" x2="211.104" y2="54.1332" gradientUnits="userSpaceOnUse">
<stop stop-color="#CB266E"/>
<stop offset="1" stop-color="#4C286E"/>
</linearGradient>
</defs>
</svg>
