<svg id="Layer_1" data-name="Layer 1" xmlns="http://www.w3.org/2000/svg" viewBox="0 0 51 19"><defs><style>.cls-1{fill:#f05354;}.cls-2{isolation:isolate;font-size:11.84px;fill:#fff;font-family:Rubik-MediumItalic, Rubik;font-weight:500;font-style:italic;}</style></defs><path class="cls-1" d="M23.2,3.5H10.1A1.4,1.4,0,0,0,8.8,5h0a1.4,1.4,0,0,0,1.3,1.5h7.4a.7.7,0,0,1,.7.7v.2a.8.8,0,0,1-.7.8H13.6a1.4,1.4,0,0,0-1.4,1.4v.3a1.4,1.4,0,0,0,1.4,1.4h3.9a.8.8,0,0,1,.7.8h0a.7.7,0,0,1-.7.7H7.3a1.5,1.5,0,0,0-1.4,1.5h0a1.4,1.4,0,0,0,1.4,1.5H44.8a6,6,0,0,0,5.7-6.2h0a6,6,0,0,0-5.7-6.2Z"/><circle class="cls-1" cx="10" cy="9.7" r="1.6" transform="translate(-1.7 17.3) rotate(-76.7)"/><text class="cls-2" transform="matrix(1, 0.01, -0.01, 1, 22.58, 13.4)">fast</text><rect class="cls-1" x="0.8" y="13.2" width="4.4" height="2.73" rx="1.3"/></svg>