<svg width="80" height="80" viewBox="0 0 80 80" fill="none" xmlns="http://www.w3.org/2000/svg">
<path d="M59.8511 32.8336L78.7796 29.3784L74.344 36.2724L78.7796 41.6266L59.8511 45.079V32.8336Z" fill="#F72828"/>
<path d="M59.8462 32.8359L71.5072 35.8504V48.0985L59.8462 45.0841V32.8359Z" fill="#210F0A"/>
<path d="M20.6681 39.9839L1.73682 43.4363L6.17245 48.7143L1.73682 55.6845L20.6681 52.2293V39.9839Z" fill="#F72828"/>
<path d="M20.6718 39.9863L9.01074 47.2558V59.5039L20.6718 52.2345V39.9863Z" fill="#210F0A"/>
<path d="M39.0207 73.9936C38.8133 73.9936 38.609 73.965 38.4079 73.9077C37.4792 73.7232 30.6618 72.1735 23.771 65.803C17.1483 59.6807 9.2107 47.7288 9.00005 25.5753C8.99686 25.1902 9.14687 24.8211 9.41816 24.5475C9.68945 24.2738 10.0597 24.1211 10.4459 24.1211C10.481 24.1211 10.5161 24.1211 10.548 24.1211C12.9513 24.1051 14.9046 22.1482 14.9046 19.7489C14.9046 16.6432 14.6748 12.4938 14.6716 12.4524C14.6333 11.7683 15.0833 11.1509 15.7504 10.9791L38.6569 5.04773C38.7782 5.01591 38.8995 5 39.0207 5C39.142 5 39.2665 5.01591 39.3846 5.04773L62.6773 11.0873C63.3986 11.275 63.8614 11.9783 63.7401 12.7133C63.7337 12.7515 63.0954 16.7259 63.0954 19.7521C63.0954 22.1514 65.0455 24.1083 67.4488 24.1242C67.4839 24.1242 67.519 24.1242 67.5541 24.1242C67.9403 24.1242 68.3106 24.277 68.5818 24.5506C68.8531 24.8243 69.0031 25.1934 69 25.5784C68.9074 35.532 67.3307 44.2572 64.305 51.5187C61.8602 57.3864 58.4771 62.3123 54.2417 66.1626C47.3925 72.3931 40.6102 73.7486 39.6048 73.9204C39.4133 73.9745 39.2154 74 39.0176 74L39.0207 73.9936Z" fill="white"/>
<path d="M67.9255 25.3815C64.6552 25.3815 62.0039 22.7435 62.0039 19.4897C62.0039 16.2358 62.6748 12.124 62.6748 12.124L39.0211 6L15.7595 12.0112C15.7595 12.0112 15.9961 16.2616 15.9961 19.4864C15.9961 22.7113 13.3448 25.3783 10.0745 25.3783C10.0486 25.3783 10.0259 25.375 10 25.375C10.4084 67.837 38.7585 72.9548 38.7585 72.9548C38.8428 72.9839 38.9303 73 39.0211 73C39.1118 73 39.1993 72.9839 39.2836 72.9548C39.2836 72.9548 67.6013 68.7722 68 25.375C67.9741 25.375 67.9514 25.3783 67.9255 25.3783V25.3815Z" fill="url(#paint0_linear_2056_15719)"/>
<path d="M39.0214 8.44816L60.9398 14.0195C60.7188 15.6961 60.4779 17.9756 60.4779 19.9811C60.4779 23.576 63.0082 26.697 66.5513 27.5418C66.0961 43.8336 61.2697 56.5755 52.5835 64.4038C46.1076 70.2428 39.5196 71.4777 39.0346 71.5615C38.2297 71.3939 31.8627 69.9236 25.466 64.0653C16.7633 56.0983 11.9204 43.4724 11.4553 27.5385C14.9951 26.6938 17.5254 23.5696 17.5254 19.9778C17.5254 17.8789 17.4264 15.4188 17.3604 13.9454L39.0247 8.44494L39.0214 8.44816ZM39.0214 8.00322L16.8986 13.6197C16.9711 15.1222 17.08 17.7693 17.08 19.9811C17.08 23.5535 14.4606 26.5358 11 27.1968C11.4058 43.4241 16.2882 56.2628 25.1592 64.3813C31.9748 70.62 38.8499 71.9678 39.0214 72C39.0346 72 39.0478 71.9935 39.0643 71.9935C39.1336 71.9839 46.0383 70.8877 52.8804 64.7198C61.7348 56.7399 66.6041 43.7852 67 27.1936C63.5394 26.5358 60.92 23.5502 60.92 19.9778C60.92 17.7757 61.2202 15.2157 61.428 13.6971L39.0247 8L39.0214 8.00322Z" fill="white"/>
<path d="M39.077 70C39.042 70 39.007 69.9969 38.9751 69.9874C37.4347 69.6074 31.9922 67.9835 26.556 62.9578C26.0341 62.4772 25.5248 61.9715 25.041 61.4626C24.9838 61.403 24.9869 61.3087 25.0474 61.2522C25.1079 61.1957 25.2034 61.1988 25.2607 61.2585C25.7413 61.7642 26.2473 62.2636 26.7629 62.741C32.145 67.7165 37.5238 69.3247 39.0452 69.6985C39.0547 69.6985 39.0643 69.6985 39.077 69.6985C40.1878 69.4629 45.8594 68.0431 51.337 63.0614C53.7813 60.8376 55.9265 58.152 57.7216 55.0738C57.7629 55.0015 57.8552 54.9795 57.9253 55.0204C57.9985 55.0612 58.0207 55.1523 57.9794 55.2214C56.1716 58.3247 54.0041 61.0355 51.5407 63.2813C46.009 68.3164 40.2673 69.7519 39.1725 69.9874C39.147 69.9937 39.1152 69.9969 39.0802 69.9969L39.077 70Z" fill="white"/>
<path d="M15.1015 42C15.0338 42 14.9726 41.9555 14.9533 41.8856C13.8607 37.5915 13.2033 32.8811 13.0003 27.8814C12.9938 27.6939 13.1066 27.5223 13.2871 27.4523C16.642 26.2064 18.8947 22.993 18.8947 19.4618C18.8947 18.13 18.856 16.4709 18.7754 14.5289C18.769 14.3223 18.9044 14.1379 19.1074 14.0871L38.9048 9.0143C38.9918 8.99523 39.0498 8.99523 39.1239 9.0143L59.0921 14.1379C59.3048 14.192 59.4466 14.3954 59.4209 14.6115C59.2758 15.8924 59.1018 17.774 59.1018 19.465C59.1018 22.9994 61.3577 26.2096 64.7126 27.4555C64.8899 27.5223 65.0091 27.6939 64.9995 27.8814C64.9414 29.3848 64.8415 30.8692 64.7094 32.2931C64.703 32.3757 64.6288 32.4361 64.545 32.4298C64.4613 32.4234 64.4 32.3503 64.4065 32.2677C64.5418 30.8501 64.6385 29.3689 64.6965 27.8719C64.6965 27.8115 64.6611 27.7575 64.6063 27.7384C61.1321 26.448 58.7956 23.1233 58.7956 19.465C58.7956 17.7613 58.9697 15.867 59.1179 14.5797C59.1244 14.5098 59.0825 14.4462 59.0148 14.4303L39.053 9.3099C39.0144 9.30036 39.0047 9.30354 38.9789 9.3099L19.1847 14.3827C19.1203 14.3986 19.0784 14.4558 19.0784 14.5225C19.159 16.4677 19.1976 18.1332 19.1976 19.4681C19.1976 23.1233 16.8643 26.448 13.3934 27.7384C13.3387 27.7607 13.3 27.8147 13.3032 27.8719C13.5062 32.8493 14.1605 37.5407 15.2465 41.8125C15.2659 41.8919 15.2175 41.9746 15.1369 41.9936C15.1241 41.9936 15.1112 41.9968 15.0983 41.9968L15.1015 42Z" fill="white"/>
<path d="M9.01611 47.2526L71.5075 35.8506V48.0987L9.01611 59.5007V47.2526Z" fill="#F72828"/>
<path d="M11.4686 48.5673C11.3481 48.5673 11.2415 48.4857 11.2191 48.366C11.1939 48.2327 11.2836 48.1048 11.421 48.0776L12.6631 47.8518C12.8004 47.8273 12.9322 47.9144 12.9603 48.0477C12.9855 48.181 12.8958 48.3116 12.7584 48.3361L11.5163 48.5619C11.4995 48.5646 11.4855 48.5673 11.4686 48.5673ZM13.9528 48.1157C13.8322 48.1157 13.7257 48.0341 13.7033 47.9144C13.678 47.7811 13.7678 47.6505 13.9051 47.626L15.1472 47.4002C15.2818 47.3757 15.4164 47.4628 15.4444 47.5961C15.4697 47.7294 15.3799 47.8573 15.2426 47.8845L14.0005 48.1103C13.9836 48.113 13.9696 48.1157 13.9528 48.1157V48.1157ZM16.437 47.6614C16.3164 47.6614 16.2099 47.5798 16.1874 47.46C16.1622 47.3267 16.2519 47.1989 16.3893 47.1717L17.6314 46.9459C17.7716 46.9214 17.9034 47.0084 17.9286 47.1417C17.9538 47.275 17.8641 47.4056 17.7267 47.4301L16.4846 47.6559C16.4678 47.6587 16.4538 47.6614 16.437 47.6614ZM18.9212 47.207C18.8006 47.207 18.6941 47.1254 18.6716 47.0057C18.6464 46.8724 18.7361 46.7418 18.8735 46.7173L20.1156 46.4915C20.2558 46.467 20.3876 46.5541 20.4128 46.6874C20.438 46.8207 20.3483 46.9513 20.2109 46.9758L18.9688 47.2016C18.952 47.2043 18.938 47.207 18.9212 47.207V47.207ZM21.4053 46.7527C21.2848 46.7527 21.1782 46.6711 21.1558 46.5514C21.1306 46.4181 21.2203 46.2875 21.3577 46.263L22.5998 46.0372C22.7371 46.0127 22.8717 46.0998 22.897 46.2331C22.9222 46.3664 22.8325 46.497 22.6951 46.5214L21.453 46.7473C21.4362 46.75 21.4222 46.7527 21.4053 46.7527ZM23.8895 46.2984C23.769 46.2984 23.6624 46.2167 23.64 46.097C23.6147 45.9637 23.7045 45.8358 23.8418 45.8086L25.0839 45.5828C25.2213 45.5584 25.3559 45.6454 25.3811 45.7787C25.4064 45.912 25.3167 46.0399 25.1793 46.0671L23.9372 46.2929C23.9204 46.2956 23.9063 46.2984 23.8895 46.2984V46.2984ZM26.3737 45.844C26.2531 45.844 26.1466 45.7624 26.1242 45.6427C26.0989 45.5094 26.1886 45.3815 26.326 45.3543L27.5681 45.1285C27.7055 45.104 27.8401 45.1911 27.8653 45.3244C27.8906 45.4577 27.8008 45.5856 27.6634 45.6128L26.4214 45.8386C26.4045 45.8413 26.3905 45.844 26.3737 45.844V45.844ZM28.8579 45.3897C28.7373 45.3897 28.6308 45.3081 28.6083 45.1883C28.5831 45.055 28.6728 44.9272 28.8102 44.9L30.0523 44.6742C30.1897 44.6497 30.3243 44.7367 30.3495 44.87C30.3747 45.0033 30.285 45.1312 30.1476 45.1584L28.9055 45.3842C28.8887 45.387 28.8747 45.3897 28.8579 45.3897V45.3897ZM31.342 44.9353C31.2215 44.9353 31.1149 44.8537 31.0925 44.734C31.0673 44.6007 31.157 44.4728 31.2944 44.4456L32.5365 44.2198C32.6739 44.1953 32.8056 44.2824 32.8337 44.4157C32.8589 44.549 32.7692 44.6769 32.6318 44.7041L31.3897 44.9299C31.3729 44.9326 31.3589 44.9353 31.342 44.9353V44.9353ZM33.8262 44.481C33.7057 44.481 33.5991 44.3994 33.5767 44.2797C33.5514 44.1464 33.6412 44.0158 33.7786 43.9913L35.0206 43.7655C35.1608 43.741 35.2926 43.828 35.3178 43.9614C35.3431 44.0947 35.2534 44.2253 35.116 44.2497L33.8739 44.4756C33.8571 44.4783 33.843 44.481 33.8262 44.481V44.481ZM36.3104 44.0267C36.1898 44.0267 36.0833 43.945 36.0609 43.8253C36.0356 43.692 36.1253 43.5642 36.2627 43.5369L37.5048 43.3111C37.6422 43.2866 37.774 43.3737 37.802 43.507C37.8273 43.6403 37.7375 43.7682 37.6001 43.7954L36.3581 44.0212C36.3412 44.0239 36.3272 44.0267 36.3104 44.0267V44.0267ZM38.7946 43.5723C38.674 43.5723 38.5675 43.4907 38.545 43.371C38.5198 43.2377 38.6095 43.1098 38.7469 43.0826L39.989 42.8568C40.1236 42.8323 40.2582 42.9194 40.2862 43.0527C40.3114 43.186 40.2217 43.3139 40.0843 43.3411L38.8422 43.5669C38.8254 43.5696 38.8114 43.5723 38.7946 43.5723V43.5723ZM41.2787 43.118C41.1582 43.118 41.0516 43.0364 41.0292 42.9166C41.004 42.7833 41.0937 42.6555 41.2311 42.6283L42.4732 42.4025C42.6134 42.378 42.7451 42.465 42.7704 42.5983C42.7956 42.7316 42.7059 42.8595 42.5685 42.8867L41.3264 43.1125C41.3096 43.1153 41.2956 43.118 41.2787 43.118V43.118ZM43.7629 42.6636C43.6424 42.6636 43.5358 42.582 43.5134 42.4623C43.4882 42.329 43.5779 42.1984 43.7153 42.1739L44.9573 41.9481C45.0947 41.9236 45.2293 42.0107 45.2546 42.144C45.2798 42.2773 45.1901 42.4079 45.0527 42.4324L43.8106 42.6582C43.7938 42.6609 43.7797 42.6636 43.7629 42.6636V42.6636ZM46.2471 42.2093C46.1265 42.2093 46.02 42.1277 45.9976 42.008C45.9723 41.8747 46.062 41.7441 46.1994 41.7196L47.4415 41.4938C47.5761 41.4693 47.7107 41.5563 47.7387 41.6897C47.764 41.823 47.6742 41.9508 47.5369 41.978L46.2948 42.2038C46.2779 42.2066 46.2639 42.2093 46.2471 42.2093V42.2093ZM48.7313 41.755C48.6107 41.755 48.5042 41.6733 48.4817 41.5536C48.4565 41.4203 48.5462 41.2924 48.6836 41.2652L49.9257 41.0394C50.0631 41.0149 50.1977 41.102 50.2229 41.2353C50.2481 41.3686 50.1584 41.4992 50.021 41.5237L48.7789 41.7495C48.7621 41.7522 48.7481 41.755 48.7313 41.755V41.755ZM51.2155 41.3006C51.0949 41.3006 50.9883 41.219 50.9659 41.0993C50.9407 40.966 51.0304 40.8354 51.1678 40.8109L52.4099 40.5851C52.5445 40.5606 52.679 40.6477 52.7071 40.781C52.7323 40.9143 52.6426 41.0422 52.5052 41.0694L51.2631 41.2952C51.2463 41.2979 51.2323 41.3006 51.2155 41.3006V41.3006ZM53.6996 40.8463C53.5791 40.8463 53.4725 40.7647 53.4501 40.6449C53.4249 40.5116 53.5146 40.381 53.652 40.3566L54.8941 40.1308C55.0314 40.1063 55.166 40.1933 55.1913 40.3266C55.2165 40.4599 55.1268 40.5905 54.9894 40.615L53.7473 40.8408C53.7305 40.8436 53.7165 40.8463 53.6996 40.8463V40.8463ZM56.1838 40.3947C56.0632 40.3947 55.9567 40.313 55.9343 40.1933C55.909 40.06 55.9988 39.9294 56.1361 39.9049L57.3782 39.6791C57.5184 39.6546 57.6502 39.7417 57.6754 39.875C57.7007 40.0083 57.6109 40.1389 57.4736 40.1634L56.2315 40.3892C56.2146 40.3919 56.2006 40.3947 56.1838 40.3947V40.3947ZM58.668 39.9403C58.5474 39.9403 58.4409 39.8587 58.4184 39.739C58.3932 39.6057 58.4829 39.4778 58.6203 39.4506L59.8624 39.2248C59.9998 39.2003 60.1316 39.2874 60.1596 39.4207C60.1848 39.554 60.0951 39.6819 59.9577 39.7091L58.7156 39.9349C58.6988 39.9376 58.6848 39.9403 58.668 39.9403V39.9403ZM61.1522 39.486C61.0316 39.486 60.925 39.4044 60.9026 39.2846C60.8774 39.1513 60.9671 39.0235 61.1045 38.9963L62.3466 38.7705C62.4812 38.746 62.6157 38.833 62.6438 38.9663C62.669 39.0996 62.5793 39.2275 62.4419 39.2547L61.1998 39.4805C61.183 39.4833 61.169 39.486 61.1522 39.486V39.486ZM63.6363 39.0316C63.5158 39.0316 63.4092 38.95 63.3868 38.8303C63.3616 38.697 63.4513 38.5691 63.5887 38.5419L64.8308 38.3161C64.9709 38.2916 65.1027 38.3787 65.128 38.512C65.1532 38.6453 65.0635 38.7732 64.9261 38.8004L63.684 39.0262C63.6672 39.0289 63.6532 39.0316 63.6363 39.0316ZM66.1205 38.5773C65.9999 38.5773 65.8934 38.4957 65.871 38.376C65.8457 38.2427 65.9355 38.1121 66.0728 38.0876L67.3149 37.8618C67.4523 37.8373 67.5869 37.9243 67.6121 38.0577C67.6374 38.191 67.5477 38.3216 67.4103 38.346L66.1682 38.5719C66.1513 38.5746 66.1373 38.5773 66.1205 38.5773ZM68.6047 38.123C68.4841 38.123 68.3776 38.0413 68.3551 37.9216C68.3299 37.7883 68.4196 37.6605 68.557 37.6332L69.0561 37.5407C69.1963 37.5163 69.3253 37.6033 69.3533 37.7366C69.3785 37.8699 69.2888 37.9978 69.1514 38.025L68.6524 38.1148C68.6355 38.1175 68.6215 38.1202 68.6047 38.1202V38.123Z" fill="white"/>
<path d="M11.4686 57.915C11.3481 57.915 11.2415 57.8334 11.2191 57.7137C11.1939 57.5804 11.2836 57.4525 11.421 57.4253L12.6631 57.1995C12.8004 57.175 12.935 57.262 12.9603 57.3954C12.9855 57.5287 12.8958 57.6565 12.7584 57.6837L11.5163 57.9095C11.4995 57.9123 11.4855 57.915 11.4686 57.915ZM13.9528 57.4606C13.8322 57.4606 13.7257 57.379 13.7033 57.2593C13.678 57.126 13.7678 56.9981 13.9051 56.9709L15.1472 56.7451C15.2846 56.7206 15.4164 56.8077 15.4444 56.941C15.4697 57.0743 15.3799 57.2022 15.2426 57.2294L14.0005 57.4552C13.9836 57.4579 13.9696 57.4606 13.9528 57.4606V57.4606ZM16.437 57.0063C16.3164 57.0063 16.2099 56.9247 16.1874 56.805C16.1622 56.6717 16.2519 56.5438 16.3893 56.5166L17.6314 56.2908C17.7716 56.2663 17.9034 56.3534 17.9286 56.4867C17.9538 56.62 17.8641 56.7506 17.7267 56.7751L16.4846 57.0009C16.4678 57.0036 16.4538 57.0063 16.437 57.0063ZM18.9212 56.552C18.8006 56.552 18.6941 56.4703 18.6716 56.3506C18.6464 56.2173 18.7361 56.0895 18.8735 56.0623L20.1156 55.8364C20.2558 55.812 20.3876 55.899 20.4128 56.0323C20.438 56.1656 20.3483 56.2935 20.2109 56.3207L18.9688 56.5465C18.952 56.5492 18.938 56.552 18.9212 56.552V56.552ZM21.4053 56.0976C21.2848 56.0976 21.1782 56.016 21.1558 55.8963C21.1306 55.763 21.2203 55.6324 21.3577 55.6079L22.5998 55.3821C22.7371 55.3576 22.8717 55.4447 22.897 55.578C22.9222 55.7113 22.8325 55.8419 22.6951 55.8664L21.453 56.0922C21.4362 56.0949 21.4222 56.0976 21.4053 56.0976ZM23.8895 55.6433C23.769 55.6433 23.6624 55.5617 23.64 55.442C23.6147 55.3087 23.7045 55.1808 23.8418 55.1536L25.0839 54.9278C25.2213 54.9033 25.3531 54.9903 25.3811 55.1237C25.4064 55.257 25.3167 55.3848 25.1793 55.412L23.9372 55.6378C23.9204 55.6406 23.9063 55.6433 23.8895 55.6433V55.6433ZM26.3737 55.1889C26.2531 55.1889 26.1466 55.1073 26.1242 54.9876C26.0989 54.8543 26.1886 54.7264 26.326 54.6992L27.5681 54.4734C27.7083 54.4489 27.8401 54.536 27.8653 54.6693C27.8906 54.8026 27.8008 54.9332 27.6634 54.9577L26.4214 55.1835C26.4045 55.1862 26.3905 55.1889 26.3737 55.1889V55.1889ZM28.8579 54.7346C28.7373 54.7346 28.6308 54.653 28.6083 54.5333C28.5831 54.4 28.6728 54.2721 28.8102 54.2449L30.0523 54.0191C30.1897 53.9946 30.3243 54.0817 30.3495 54.215C30.3747 54.3483 30.285 54.4762 30.1476 54.5034L28.9055 54.7292C28.8887 54.7319 28.8747 54.7346 28.8579 54.7346V54.7346ZM31.342 54.2803C31.2215 54.2803 31.1149 54.1987 31.0925 54.0789C31.0673 53.9456 31.157 53.815 31.2944 53.7906L32.5365 53.5648C32.6739 53.5403 32.8084 53.6273 32.8337 53.7606C32.8589 53.8939 32.7692 54.0245 32.6318 54.049L31.3897 54.2748C31.3729 54.2775 31.3589 54.2803 31.342 54.2803V54.2803ZM33.8262 53.8259C33.7057 53.8259 33.5991 53.7443 33.5767 53.6246C33.5514 53.4913 33.6412 53.3607 33.7786 53.3362L35.0206 53.1104C35.1608 53.0859 35.2926 53.173 35.3178 53.3063C35.3431 53.4396 35.2534 53.5702 35.116 53.5947L33.8739 53.8205C33.8571 53.8232 33.843 53.8259 33.8262 53.8259V53.8259ZM36.3104 53.3743C36.1898 53.3743 36.0833 53.2927 36.0609 53.173C36.0356 53.0397 36.1253 52.9091 36.2627 52.8846L37.5048 52.6588C37.6422 52.6343 37.7768 52.7214 37.802 52.8547C37.8273 52.988 37.7375 53.1186 37.6001 53.1431L36.3581 53.3689C36.3412 53.3716 36.3272 53.3743 36.3104 53.3743V53.3743ZM38.7946 52.92C38.674 52.92 38.5675 52.8384 38.545 52.7186C38.5198 52.5853 38.6095 52.4575 38.7469 52.4303L39.989 52.2045C40.1236 52.18 40.2582 52.267 40.2862 52.4003C40.3114 52.5336 40.2217 52.6615 40.0843 52.6887L38.8422 52.9145C38.8254 52.9172 38.8114 52.92 38.7946 52.92V52.92ZM41.2787 52.4656C41.1582 52.4656 41.0516 52.384 41.0292 52.2643C41.004 52.131 41.0937 52.0031 41.2311 51.9759L42.4732 51.7501C42.6134 51.7256 42.7451 51.8127 42.7704 51.946C42.7956 52.0793 42.7059 52.2072 42.5685 52.2344L41.3264 52.4602C41.3096 52.4629 41.2956 52.4656 41.2787 52.4656V52.4656ZM43.7629 52.0113C43.6424 52.0113 43.5358 51.9297 43.5134 51.81C43.4882 51.6767 43.5779 51.5488 43.7153 51.5216L44.9573 51.2958C45.0947 51.2713 45.2293 51.3583 45.2546 51.4917C45.2798 51.625 45.1901 51.7556 45.0527 51.78L43.8106 52.0058C43.7938 52.0086 43.7797 52.0113 43.7629 52.0113V52.0113ZM46.2471 51.5569C46.1265 51.5569 46.02 51.4753 45.9976 51.3556C45.9723 51.2223 46.062 51.0944 46.1994 51.0672L47.4415 50.8414C47.5789 50.8169 47.7107 50.904 47.7387 51.0373C47.764 51.1706 47.6742 51.2985 47.5369 51.3257L46.2948 51.5515C46.2779 51.5542 46.2639 51.5569 46.2471 51.5569V51.5569ZM48.7313 51.1026C48.6107 51.1026 48.5042 51.021 48.4817 50.9013C48.4565 50.768 48.5462 50.6374 48.6836 50.6129L49.9257 50.3871C50.0659 50.3626 50.1977 50.4497 50.2229 50.583C50.2481 50.7163 50.1584 50.8469 50.021 50.8714L48.7789 51.0972C48.7621 51.0999 48.7481 51.1026 48.7313 51.1026V51.1026ZM51.2155 50.6483C51.0949 50.6483 50.9883 50.5666 50.9659 50.4469C50.9407 50.3136 51.0304 50.1858 51.1678 50.1586L52.4099 49.9328C52.5473 49.9083 52.679 49.9953 52.7071 50.1286C52.7323 50.2619 52.6426 50.3898 52.5052 50.417L51.2631 50.6428C51.2463 50.6455 51.2323 50.6483 51.2155 50.6483V50.6483ZM53.6996 50.1939C53.5791 50.1939 53.4725 50.1123 53.4501 49.9926C53.4249 49.8593 53.5146 49.7314 53.652 49.7042L54.8941 49.4784C55.0286 49.4539 55.166 49.541 55.1913 49.6743C55.2165 49.8076 55.1268 49.9382 54.9894 49.9627L53.7473 50.1885C53.7305 50.1912 53.7165 50.1939 53.6996 50.1939V50.1939ZM56.1838 49.7396C56.0632 49.7396 55.9567 49.658 55.9343 49.5383C55.909 49.405 55.9988 49.2771 56.1361 49.2499L57.3782 49.0241C57.5156 48.9996 57.6502 49.0866 57.6754 49.22C57.7007 49.3533 57.6109 49.4811 57.4736 49.5083L56.2315 49.7341C56.2146 49.7369 56.2006 49.7396 56.1838 49.7396V49.7396ZM58.668 49.288C58.5474 49.288 58.4409 49.2064 58.4184 49.0866C58.3932 48.9533 58.4829 48.8227 58.6203 48.7983L59.8624 48.5725C59.9998 48.548 60.1344 48.635 60.1596 48.7683C60.1848 48.9016 60.0951 49.0322 59.9577 49.0567L58.7156 49.2825C58.6988 49.2852 58.6848 49.288 58.668 49.288V49.288ZM61.1522 48.8336C61.0316 48.8336 60.925 48.752 60.9026 48.6323C60.8774 48.499 60.9671 48.3684 61.1045 48.3439L62.3466 48.1181C62.484 48.0936 62.6186 48.1807 62.6438 48.314C62.669 48.4473 62.5793 48.5779 62.4419 48.6024L61.1998 48.8282C61.183 48.8309 61.169 48.8336 61.1522 48.8336V48.8336ZM63.6363 48.3793C63.5158 48.3793 63.4092 48.2977 63.3868 48.178C63.3616 48.0447 63.4513 47.9141 63.5887 47.8896L64.8308 47.6638C64.9709 47.6393 65.1027 47.7263 65.128 47.8597C65.1532 47.993 65.0635 48.1236 64.9261 48.148L63.684 48.3738C63.6672 48.3766 63.6532 48.3793 63.6363 48.3793ZM66.1205 47.9249C65.9999 47.9249 65.8934 47.8433 65.871 47.7236C65.8457 47.5903 65.9355 47.4624 66.0728 47.4352L67.3149 47.2094C67.4523 47.1849 67.5869 47.272 67.6121 47.4053C67.6374 47.5386 67.5477 47.6665 67.4103 47.6937L66.1682 47.9195C66.1513 47.9222 66.1373 47.9249 66.1205 47.9249ZM68.6047 47.4706C68.4841 47.4706 68.3776 47.389 68.3551 47.2693C68.3299 47.136 68.4196 47.0054 68.557 46.9809L69.0561 46.8884C69.1963 46.8639 69.3281 46.951 69.3533 47.0843C69.3785 47.2176 69.2888 47.3482 69.1514 47.3727L68.6524 47.4652C68.6355 47.4679 68.6215 47.4706 68.6047 47.4706Z" fill="white"/>
<path d="M35.6928 26L35.531 23.9774L34 22.6478L35.8734 21.8682L36.6633 20L37.9799 21.5443L40 21.7175L38.9429 23.4501L39.4019 25.4275L37.427 24.9529L35.6928 26Z" fill="white"/>
<path d="M28.2721 28L27.3553 26.7531L26 26.6631L26.6727 25.1995L26.3232 23.5683L27.6554 23.9117L28.7964 23L28.9448 24.6721L30 25.7351L28.7601 26.4301L28.2721 28Z" fill="white"/>
<path d="M45.4081 25L44.0379 23.7531L42 23.6631L43.014 22.1995L42.4897 20.5724L44.488 20.9117L46.1946 20L46.4221 21.6721L48 22.7392L46.1451 23.4301L45.4081 25Z" fill="white"/>
<path d="M52.7034 24L52.0187 23.2525L51 23.1967L51.5061 22.3213L51.2448 21.3443L52.2437 21.5508L53.1003 21L53.2095 22.0066L54 22.6426L53.0706 23.0557L52.7034 24Z" fill="white"/>
<path d="M21.7034 30L21.0154 29.0033L20 28.929L20.5061 27.7574L20.2415 26.459L21.2404 26.7301L22.097 26L22.2095 27.3377L23 28.1902L22.0706 28.741L21.7034 30Z" fill="white"/>
<path d="M37.1485 65L36 60.1283L37.7526 62.5903L39.0014 59L40.1661 62.4819L42 60.1283L40.8542 65H37.1485Z" fill="white"/>
<path d="M26.6595 47.2898L26.3413 52.3683L24.8792 52.6224L23.533 49.4957L23.3137 52.8944L21.8516 53.1485L19.8387 48.4751L21.1215 48.2522L22.3627 51.6742L22.6043 47.9945L23.8939 47.7704L25.3627 51.1529L25.3836 47.5115L26.6595 47.2898ZM30.9921 50.6435L29.1645 50.9611L29.0157 51.9035L27.7743 52.1193L28.7192 46.9674L30.0778 46.7313L32.7054 51.2623L31.4502 51.4805L30.9921 50.6435ZM30.5329 49.7997L29.6144 48.112L29.3122 50.0118L30.5329 49.7997ZM35.6673 50.7476L34.2921 49.0896L34.0231 49.1363L34.3431 50.9777L33.1638 51.1827L32.3164 46.3068L34.3303 45.9568C34.7165 45.8897 35.0545 45.8996 35.3443 45.9866C35.6342 46.0736 35.8661 46.2228 36.0402 46.4341C36.2135 46.6408 36.3261 46.8936 36.3781 47.1924C36.4396 47.5464 36.3931 47.8648 36.2385 48.1474C36.0886 48.4293 35.8354 48.6485 35.4789 48.8052L36.9707 50.5211L35.6673 50.7476ZM33.8829 48.3294L34.6139 48.2024C34.8484 48.1616 35.012 48.0811 35.1048 47.9608C35.1968 47.8358 35.2252 47.6722 35.19 47.4699C35.1565 47.2768 35.0726 47.1351 34.9385 47.0447C34.809 46.9535 34.6293 46.9279 34.3994 46.9679L33.6684 47.0949L33.8829 48.3294ZM40.0518 49.9857L38.6766 48.3276L38.4076 48.3744L38.7276 50.2158L37.5483 50.4207L36.7009 45.5448L38.7147 45.1949C39.101 45.1277 39.439 45.1377 39.7288 45.2247C40.0187 45.3117 40.2506 45.4608 40.4247 45.6721C40.598 45.8788 40.7106 46.1316 40.7625 46.4305C40.8241 46.7845 40.7776 47.1028 40.623 47.3855C40.473 47.6673 40.2198 47.8866 39.8634 48.0432L41.3552 49.7592L40.0518 49.9857ZM38.2674 47.5675L38.9984 47.4404C39.2329 47.3997 39.3965 47.3192 39.4893 47.1988C39.5813 47.0739 39.6097 46.9103 39.5745 46.708C39.541 46.5149 39.4571 46.3731 39.323 46.2828C39.1935 46.1916 39.0138 46.166 38.7839 46.2059L38.0528 46.333L38.2674 47.5675ZM44.7989 48.2442L42.9713 48.5618L42.8224 49.5042L41.581 49.7199L42.5259 44.5681L43.8845 44.332L46.5121 48.863L45.2569 49.0811L44.7989 48.2442ZM44.3396 47.4004L43.4211 45.7127L43.1189 47.6125L44.3396 47.4004ZM51.3016 48.0307L50.1223 48.2356L47.6297 45.5852L48.1499 48.5784L46.9705 48.7833L46.1232 43.9074L47.3025 43.7025L49.7999 46.3804L49.275 43.3597L50.4543 43.1547L51.3016 48.0307ZM54.7722 42.4044L54.9352 43.3423L53.6111 43.5724L54.2954 47.5104L53.1092 47.7165L52.4248 43.7786L51.1145 44.0063L50.9515 43.0683L54.7722 42.4044ZM59.4832 41.5857L58.3592 45.1345L58.6408 46.7553L57.4546 46.9614L57.173 45.3407L54.9176 42.3791L56.2693 42.1442L57.5524 43.9674L58.1452 41.8182L59.4832 41.5857Z" fill="white"/>
<path d="M28.0145 34.9882C28.378 35.0111 28.6825 35.1338 28.928 35.3564C29.179 35.5781 29.3331 35.8583 29.3904 36.197C29.4744 36.6942 29.3733 37.1102 29.0871 37.4452C28.8064 37.7792 28.3573 37.9983 27.74 38.1026L25.0439 38.5582L24.065 32.7644L26.6955 32.32C27.2856 32.2203 27.7634 32.2716 28.1291 32.4739C28.4949 32.6762 28.7179 33.015 28.7982 33.4903C28.8573 33.84 28.8138 34.1479 28.6677 34.4142C28.5207 34.6751 28.303 34.8664 28.0145 34.9882ZM25.8665 34.896L26.7843 34.7409C27.2705 34.6587 27.4785 34.4101 27.4084 33.9949C27.3382 33.5797 27.0546 33.4141 26.5574 33.498L25.656 33.6504L25.8665 34.896ZM27.2525 37.0134C27.7715 36.9257 27.995 36.6688 27.923 36.2427C27.888 36.0351 27.7924 35.8854 27.6365 35.7938C27.4796 35.6967 27.2755 35.6693 27.0242 35.7118L26.0326 35.8793L26.2528 37.1823L27.2525 37.0134ZM33.3725 37.151L31.749 35.1748L31.4294 35.2288L31.7991 37.4168L30.3977 37.6536L29.4188 31.8599L31.8117 31.4556C32.2706 31.378 32.6719 31.3917 33.0155 31.4966C33.3592 31.6015 33.6338 31.7799 33.8393 32.0317C34.0438 32.2781 34.1761 32.5789 34.2361 32.934C34.3072 33.3546 34.2502 33.7323 34.0651 34.067C33.8855 34.4008 33.5837 34.6597 33.1596 34.8438L34.9213 36.8893L33.3725 37.151ZM31.2674 34.27L32.136 34.1232C32.4147 34.0762 32.6094 33.9815 32.7202 33.8391C32.8301 33.6913 32.8647 33.4972 32.8241 33.2568C32.7853 33.0274 32.6866 32.8586 32.5278 32.7506C32.3746 32.6416 32.1613 32.6102 31.8882 32.6564L31.0195 32.8031L31.2674 34.27ZM39.0183 35.1098L36.8466 35.4767L36.6647 36.5947L35.1896 36.844L36.3401 30.7326L37.9545 30.4598L41.0489 35.854L39.5574 36.106L39.0183 35.1098ZM38.4777 34.1054L37.3966 32.0966L37.0272 34.3504L38.4777 34.1054ZM46.7399 34.8924L45.3386 35.1292L42.394 31.9686L42.9949 35.5252L41.5936 35.762L40.6147 29.9682L42.016 29.7315L44.9662 32.9248L44.3597 29.3355L45.761 29.0987L46.7399 34.8924ZM52.4281 30.9392C52.5241 31.5074 52.4865 32.0335 52.3155 32.5175C52.1489 32.9952 51.857 33.3957 51.4396 33.7191C51.0277 34.0416 50.5131 34.2549 49.8957 34.3593L47.7077 34.7289L46.7288 28.9352L48.9168 28.5655C49.5396 28.4603 50.0981 28.4896 50.5921 28.6533C51.0862 28.8171 51.4903 29.0972 51.8045 29.4936C52.1242 29.8892 52.3321 30.371 52.4281 30.9392ZM49.5609 33.1262C50.1073 33.0339 50.5062 32.8176 50.7578 32.4773C51.0148 32.136 51.099 31.7032 51.0104 31.1787C50.9218 30.6542 50.7 30.2731 50.3452 30.0352C49.9958 29.7964 49.5479 29.7232 49.0016 29.8155L48.3378 29.9277L48.8972 33.2384L49.5609 33.1262Z" fill="white"/>
<defs>
<linearGradient id="paint0_linear_2056_15719" x1="10.0032" y1="39.5032" x2="68" y2="39.5032" gradientUnits="userSpaceOnUse">
<stop stop-color="#48AFFF"/>
<stop offset="1" stop-color="#2476A3"/>
</linearGradient>
</defs>
</svg>
