<svg width="90" height="105" viewBox="0 0 90 105" fill="none" xmlns="http://www.w3.org/2000/svg">
<path d="M16.8602 104.709C16.2685 104.412 15.8046 103.91 15.5545 103.297C15.3044 102.684 15.2851 102.001 15.5001 101.374L19.0276 91.0462L25.9335 95.7057L20.3527 103.814C19.976 104.359 19.4153 104.749 18.7737 104.914C18.132 105.078 17.4525 105.005 16.8602 104.709ZM72.423 104.709C73.6427 104.094 74.2306 102.673 73.7831 101.374L70.2117 90.9233L62.9373 95.109L68.9306 103.814C69.3072 104.359 69.8679 104.749 70.5096 104.914C71.1513 105.078 71.8307 105.005 72.423 104.709Z" fill="#82AEC0"/>
<path d="M44.6418 101.12C68.563 101.12 87.9548 81.7282 87.9548 57.8071C87.9548 33.886 68.563 14.4941 44.6418 14.4941C20.7207 14.4941 1.32886 33.886 1.32886 57.8071C1.32886 81.7282 20.7207 101.12 44.6418 101.12Z" fill="#CC2929"/>
<path d="M44.6416 100.699C67.1283 100.699 85.3573 82.4698 85.3573 59.9832C85.3573 37.4966 67.1283 19.2676 44.6416 19.2676C22.155 19.2676 3.92603 37.4966 3.92603 59.9832C3.92603 82.4698 22.155 100.699 44.6416 100.699Z" fill="#FF4638"/>
<path d="M44.6414 95.1089C64.0409 95.1089 79.7674 79.3825 79.7674 59.9829C79.7674 40.5834 64.0409 24.8569 44.6414 24.8569C25.2418 24.8569 9.51538 40.5834 9.51538 59.9829C9.51538 79.3825 25.2418 95.1089 44.6414 95.1089Z" fill="#FAFAFA"/>
<path d="M44.9048 63.8883C47.0614 63.8883 48.8097 62.14 48.8097 59.9834C48.8097 57.8269 47.0614 56.0786 44.9048 56.0786C42.7483 56.0786 41 57.8269 41 59.9834C41 62.14 42.7483 63.8883 44.9048 63.8883Z" fill="#563428"/>
<path d="M44.6417 33.5438C43.9309 33.5438 43.3517 32.9647 43.3517 32.2539V28.3929C43.3517 27.6822 43.9309 27.103 44.6417 27.103C45.3524 27.103 45.9316 27.6822 45.9316 28.3929V32.2539C45.9316 32.9647 45.3524 33.5438 44.6417 33.5438ZM44.6417 92.8535C43.9309 92.8535 43.3517 92.2743 43.3517 91.5636V87.7026C43.3517 86.9918 43.9309 86.4127 44.6417 86.4127C45.3524 86.4127 45.9316 86.9918 45.9316 87.7026V91.5636C45.9316 92.2743 45.3524 92.8535 44.6417 92.8535ZM29.6629 36.615L27.7324 33.2718C27.3726 32.6575 27.5832 31.8678 28.2062 31.508C28.8205 31.1483 29.6102 31.3589 29.97 31.9819L31.9005 35.3251C32.2603 35.9394 32.0497 36.7291 31.4266 37.0889C30.8124 37.4399 30.0226 37.2293 29.6629 36.615ZM59.3221 87.9746L57.3916 84.6314C57.0318 84.0171 57.2512 83.2274 57.8655 82.8676C58.4797 82.5079 59.2694 82.7272 59.6292 83.3415L61.5597 86.6847C61.9195 87.299 61.7001 88.0887 61.0859 88.4485C60.4628 88.7995 59.6731 88.5889 59.3221 87.9746Z" fill="#B2947C"/>
<path d="M29.6628 36.616L27.7324 33.2728C27.3726 32.6585 27.5832 31.8688 28.2062 31.509C28.8205 31.1492 29.6102 31.3598 29.97 31.9829L31.9004 35.3261C32.2602 35.9403 32.0496 36.7301 31.4266 37.0899C30.8124 37.4409 30.0226 37.2303 29.6628 36.616ZM59.3221 87.9756L57.3916 84.6324C57.0318 84.0181 57.2512 83.2284 57.8654 82.8686C58.4797 82.5088 59.2694 82.7282 59.6292 83.3424L61.5597 86.6857C61.9194 87.2999 61.7001 88.0897 61.0858 88.4494C60.4628 88.8004 59.6731 88.5898 59.3221 87.9756ZM19.9929 47.2337L16.6496 45.3032C16.0354 44.9434 15.8248 44.1624 16.1758 43.5394C16.5356 42.9252 17.3165 42.7146 17.9396 43.0656L21.2828 44.9961C21.897 45.3558 22.1076 46.1368 21.7566 46.7598C21.3969 47.3828 20.6071 47.5934 19.9929 47.2337ZM71.3525 76.8841L68.0092 74.9536C67.395 74.5938 67.1844 73.8129 67.5354 73.1899C67.8952 72.5756 68.6761 72.365 69.2991 72.716L72.6424 74.6465C73.2566 75.0063 73.4672 75.7872 73.1162 76.4103C72.7565 77.0333 71.9667 77.2439 71.3525 76.8841ZM57.8567 37.0899C57.2424 36.7301 57.0318 35.9491 57.3828 35.3261L59.3133 31.9829C59.6731 31.3686 60.454 31.158 61.077 31.509C61.6913 31.8688 61.9019 32.6497 61.5509 33.2728L59.6204 36.616C59.2606 37.2303 58.4797 37.4409 57.8567 37.0899ZM28.2062 88.4494C27.592 88.0897 27.3814 87.3087 27.7324 86.6857L29.6628 83.3424C30.0226 82.7282 30.8036 82.5176 31.4266 82.8686C32.0408 83.2284 32.2514 84.0093 31.9004 84.6324L29.97 87.9756C29.6102 88.5898 28.8205 88.8004 28.2062 88.4494ZM67.5354 46.7598C67.1756 46.1456 67.3862 45.3558 68.0092 44.9961L71.3525 43.0656C71.9667 42.7058 72.7565 42.9252 73.1162 43.5394C73.476 44.1537 73.2566 44.9434 72.6424 45.3032L69.2991 47.2337C68.6761 47.5934 67.8864 47.3828 67.5354 46.7598ZM16.1758 76.419C15.816 75.8048 16.0354 75.015 16.6496 74.6553L19.9929 72.7248C20.6071 72.365 21.3969 72.5844 21.7566 73.1986C22.1164 73.8129 21.897 74.6026 21.2828 74.9624L17.9396 76.8929C17.3165 77.2439 16.5268 77.0333 16.1758 76.419Z" fill="#B2947C"/>
<path d="M30.4175 51.9014L44.6416 59.9831" stroke="#563428" stroke-width="0.877503" stroke-miterlimit="10" stroke-linecap="round"/>
<path d="M64.9729 48.3213L45.2908 59.9832" stroke="#563428" stroke-width="0.877503" stroke-miterlimit="10" stroke-linecap="round"/>
<path d="M69.4658 24.6991L65.833 22.3211L78.1969 0.418945L81.9701 2.55125L69.4658 24.6991Z" fill="#82AEC0"/>
<path d="M86.296 27.086C87.3753 27.4019 88.5336 26.8052 88.8671 25.7346C91.7101 16.6526 88.0247 6.77206 79.1094 2.18277C70.1326 -2.44161 60.3837 0.594515 54.7063 8.34277C54.0657 9.21148 54.2149 10.4312 55.0222 11.142C56.8562 12.7653 60.9277 15.819 69.0445 19.9257C77.6176 24.2605 83.4968 26.2611 86.296 27.086Z" fill="#CC2929"/>
<path d="M81.6278 5.22769C81.6278 5.22769 83.918 2.30564 80.5924 0.454137C78.0038 -0.984949 76.3628 2.16525 76.3628 2.16525C75.7925 3.20946 81.2329 5.94723 81.6278 5.22769ZM20.0103 24.7256L7.48853 2.55134L11.2705 0.419037L23.4325 21.9702L20.0103 24.7256Z" fill="#82AEC0"/>
<path d="M3.5135 27.086C2.43418 27.4019 1.27589 26.8052 0.942447 25.7346C-1.90063 16.6526 1.78484 6.77206 10.7002 2.18277C19.6769 -2.44161 29.4258 0.594515 35.1032 8.34277C35.7438 9.21148 35.5946 10.4312 34.7873 11.142C32.9533 12.7653 28.8818 15.819 20.765 19.9257C12.1919 24.2605 6.3127 26.2611 3.5135 27.086Z" fill="#CC2929"/>
<path d="M8.18182 5.22769C8.18182 5.22769 5.89156 2.30564 9.21726 0.454137C11.8059 -0.984949 13.4468 2.16525 13.4468 2.16525C14.0171 3.20946 8.57669 5.94724 8.18182 5.22769Z" fill="#82AEC0"/>
<path d="M44.6416 16.5651V4.52588" stroke="#82AEC0" stroke-width="3.25203" stroke-miterlimit="10"/>
<path d="M44.6942 8.80778C41.2544 8.80778 37.8059 7.49154 37.8059 7.49154V4.88539C37.8059 4.88539 41.0088 3.45508 44.8609 3.45508C48.7131 3.45508 51.5738 4.88539 51.5738 4.88539V7.49154C51.5825 7.50032 48.1428 8.80778 44.6942 8.80778Z" fill="#82AEC0"/>
<path d="M38.6749 4.78053C38.2976 4.92093 38.2625 5.43865 38.6135 5.64047C39.1224 5.93004 39.7279 6.22839 39.9385 6.19329C42.8342 5.74577 47.0374 5.96514 49.9419 6.40389C50.1437 6.43899 50.7229 5.94759 51.1353 5.57905C51.3634 5.36845 51.3108 5.00868 51.03 4.87705C50.1174 4.46463 48.0553 3.72754 44.8612 3.72754C41.9128 3.72754 39.7805 4.35056 38.6749 4.78053Z" fill="#94D1E0"/>
<path d="M72.1599 3.12124C72.4319 4.05138 71.4316 4.8148 70.6243 5.35007C68.589 6.7173 66.9537 8.60094 65.8858 10.8081C65.3769 11.8611 64.8065 13.151 63.6394 13.3177C63.1744 13.3791 62.7181 13.2387 62.2793 13.0808C61.6037 12.8351 60.9455 12.5543 60.305 12.2296C59.5415 11.8435 58.7606 11.3521 58.4096 10.5711C57.9533 9.54448 58.3833 8.33354 58.9975 7.38585C60.4629 5.14825 62.8497 3.76181 65.3067 2.84922C66.7896 2.2964 71.4228 0.602842 72.1599 3.12124ZM11.6744 10.5185C12.2447 11.7031 12.8853 12.8526 13.5961 13.9583C14.4648 15.3096 15.4739 16.8189 15.1054 18.3808C14.6754 20.1709 12.6923 21.0308 10.9461 21.6275C10.051 21.9347 9.16475 22.2418 8.26971 22.5489C7.79587 22.7156 7.2957 22.8824 6.79553 22.856C6.00578 22.8209 5.29502 22.3208 4.8475 21.6802C4.3912 21.0396 4.16305 20.2674 3.98755 19.504C3.32944 16.5644 3.46106 13.4493 4.36487 10.5711C4.89137 8.92146 5.71621 7.18403 7.58527 7.05241C9.85797 6.89446 10.8232 8.74597 11.6744 10.5185Z" fill="#FF4638"/>
<path d="M45.1558 33.5438C44.445 33.5438 43.8658 32.9647 43.8658 32.2539V28.3929C43.8658 27.6822 44.445 27.103 45.1558 27.103C45.8665 27.103 46.4457 27.6822 46.4457 28.3929V32.2539C46.4457 32.9647 45.8665 33.5438 45.1558 33.5438ZM45.1558 92.8535C44.445 92.8535 43.8658 92.2743 43.8658 91.5636V87.7026C43.8658 86.9918 44.445 86.4127 45.1558 86.4127C45.8665 86.4127 46.4457 86.9918 46.4457 87.7026V91.5636C46.4457 92.2743 45.8665 92.8535 45.1558 92.8535ZM76.7367 61.2638H72.8757C72.1649 61.2638 71.5858 60.6846 71.5858 59.9739C71.5858 59.2631 72.1649 58.684 72.8757 58.684H76.7367C77.4474 58.684 78.0266 59.2631 78.0266 59.9739C78.0266 60.6934 77.4474 61.2638 76.7367 61.2638ZM17.4358 61.2638H13.5748C12.8641 61.2638 12.2849 60.6846 12.2849 59.9739C12.2849 59.2631 12.8641 58.684 13.5748 58.684H17.4358C18.1466 58.684 18.7257 59.2631 18.7257 59.9739C18.7257 60.6934 18.1466 61.2638 17.4358 61.2638Z" fill="#B2947C"/>
</svg>
