<svg width="100" height="100" viewBox="0 0 100 100" fill="none" xmlns="http://www.w3.org/2000/svg">
<rect width="100" height="100" rx="50" fill="#8DC63F"/>
<path d="M14 57.6645H16.671V43.2544H14V57.6645Z" fill="white"/>
<path d="M44.9823 57.6645H47.6232V46.4604H44.9823V57.6645Z" fill="white"/>
<path d="M66.705 57.6646H69.3766V46.4756H66.705V57.6646Z" fill="white"/>
<path d="M29.5091 46.4761H23.5255C23.5255 46.4761 22.4376 46.4761 22.0417 47.2719V46.4761H19.372V57.6651H22.0417V50.4643C22.0417 49.5789 22.7545 48.8628 23.6346 48.8628H28.7087C29.5862 48.8628 30.3003 49.5789 30.3003 50.4643V57.6651H32.919V49.6587C32.919 49.6587 32.7217 46.4761 29.5091 46.4761Z" fill="white"/>
<path d="M60.8553 46.4761H54.873C54.873 46.4761 53.7852 46.4761 53.3886 47.2719V46.4761H50.7176V57.6651H53.3886V50.4643C53.3886 49.5789 54.1014 48.8628 54.9808 48.8628H60.0536C60.9337 48.8628 61.6466 49.5789 61.6466 50.4643V57.6651H64.2659V49.6587C64.2659 49.6587 64.0686 46.4761 60.8553 46.4761Z" fill="white"/>
<path d="M44.9823 44.3488H47.7206V42.0273H44.9823V44.3488Z" fill="white"/>
<path d="M69.3433 42.0273H66.6383V44.3488H69.3433V42.0273Z" fill="white"/>
<path d="M36.133 45.0112V46.4623H32.6401C32.6401 46.4623 33.5966 46.8341 34.2546 48.8726H36.118V57.6644H38.7864V48.8726H42.6602V46.4623H38.7864C38.7864 46.4623 38.7707 46.5519 38.7537 46.4623V45.494C38.7537 44.3925 39.2855 44.3493 40.5315 44.3493H42.6602V42.0272H40.5315C40.5315 42.0272 36.133 41.5072 36.133 45.0112Z" fill="white"/>
<path d="M85.4254 46.4761H82.0932L78.2468 50.3813L74.3991 46.4761H71.0676L76.5716 52.0801L71.0676 57.6651H74.4409L78.2468 53.7893L82.0527 57.6651H85.4254L79.9221 52.0801L85.4254 46.4761Z" fill="white"/>
</svg>
