<svg width="100" height="100" viewBox="0 0 100 100" fill="none" xmlns="http://www.w3.org/2000/svg">
<rect width="100" height="100" rx="50" fill="#1C4598"/>
<path d="M17.4668 55.8523H14V44.194H19.9958L26.8745 52.8977V44.194H30.3413V55.8523H24.467L17.4668 47V55.8523ZM46.9283 52.2471C46.9283 53.8677 46.6385 54.4266 46.1588 54.9623C45.4235 55.7597 44.3534 56 42.2915 56H36.3722C34.3103 56 33.2384 55.7597 32.504 54.9623C32.0243 54.4266 31.7345 53.8677 31.7345 52.2471V47.7529C31.7345 46.1332 32.0243 45.5752 32.504 45.0386C33.2393 44.2403 34.3103 44 36.3722 44H42.2915C44.3534 44 45.4235 44.2403 46.1588 45.0386C46.6385 45.5752 46.9283 46.1332 46.9283 47.7529V52.2471ZM42.1457 53.0463C42.9377 53.0463 43.2167 53 43.4066 52.8291C43.5839 52.6698 43.6622 52.4643 43.6622 51.779V48.221C43.6622 47.5357 43.5839 47.3319 43.4066 47.1718C43.2167 47 42.9377 46.9546 42.1457 46.9546H36.5171C35.7251 46.9546 35.4461 47 35.2571 47.1718C35.0789 47.3319 35.0006 47.5357 35.0006 48.221V51.779C35.0006 52.4643 35.0789 52.6698 35.2571 52.8291C35.4461 53 35.7251 53.0463 36.5171 53.0463H42.1457ZM51.9665 44.194V55.8523H48.344V44.194H51.9665ZM58.0865 44.194H62.8691L56.4143 49.6467L63.6944 55.8523H58.577L51.9665 49.7722L58.0865 44.194ZM64.3622 44.194H67.9856V55.8523H64.3622V44.194ZM81.7979 55.8523L80.726 53.8214H73.7159L72.6566 55.8514H68.6543L75.0758 44.194H79.5794L86 55.8523H81.7979ZM74.975 51.2895H79.4795L77.2268 47.0685L74.975 51.2895Z" fill="white"/>
</svg>
