<svg width="100" height="100" viewBox="0 0 100 100" fill="none" xmlns="http://www.w3.org/2000/svg">
<rect width="100" height="100" rx="50" fill="#006E2A"/>
<path d="M30.3405 50.3151V41.6304H33.2022V42.2044C33.2022 42.5202 33.2073 42.7785 33.2135 42.7785C33.2197 42.7785 33.4003 42.6744 33.6149 42.5473C36.1458 41.0469 39.8251 40.5951 43.1249 41.3795C46.0978 42.0861 48.2531 43.7635 49.0192 45.9672C49.4669 47.255 49.4422 48.687 48.9508 49.9324C48.3396 51.4817 47.083 52.7272 45.2705 53.5805C43.6844 54.3272 41.8735 54.7011 39.8432 54.7011C38.1601 54.7011 36.5903 54.4354 35.2085 53.9168C34.6602 53.7111 33.9573 53.3733 33.531 53.1106L33.2022 52.908V59H30.3405V50.3151ZM41.2274 52.3922C42.8371 52.1761 44.086 51.6928 45.0224 50.9235C45.7312 50.3412 46.2248 49.5325 46.4118 48.6471C46.4883 48.285 46.4885 47.4299 46.4123 47.0689C46.1921 46.0269 45.5612 45.1167 44.6169 44.4785C44.2362 44.2213 43.463 43.8547 42.9694 43.6975C41.5757 43.2538 39.8858 43.1224 38.338 43.3374C35.6508 43.7107 33.8346 44.9721 33.3473 46.8034C33.1323 47.6115 33.1707 48.4838 33.4548 49.2462C34.1001 50.9779 36.0031 52.1303 38.6923 52.4179C39.233 52.4757 40.7175 52.4607 41.2275 52.3922H41.2274ZM50.7147 50.3151V41.6304H53.5764V42.2044C53.5764 42.5202 53.5826 42.7785 53.5901 42.7785C53.5977 42.7785 53.7552 42.6852 53.94 42.5712C54.3679 42.3072 55.2123 41.9124 55.7538 41.7233C58.0911 40.9068 60.9449 40.7751 63.4424 41.3686C67.5136 42.3359 69.911 44.9862 69.6846 48.2691C69.5118 50.775 67.75 52.8334 64.8522 53.9151C63.9069 54.268 62.9382 54.4905 61.7258 54.6332C61.0858 54.7085 59.3613 54.7085 58.6933 54.6331C56.8026 54.4196 55.1427 53.8882 53.8485 53.0822L53.5764 52.9127V59H50.7147V50.3151ZM61.6709 52.3795C63.9003 52.0644 65.4713 51.2144 66.2968 49.8767C66.7763 49.0996 66.9558 48.0659 66.778 47.1062C66.4084 45.1114 64.556 43.7311 61.72 43.337C59.8482 43.077 57.7348 43.336 56.2982 44.0015C54.8316 44.6808 53.949 45.695 53.6477 47.0473C53.5687 47.4023 53.5689 48.3149 53.6482 48.6628C53.8616 49.5995 54.3439 50.3744 55.0759 50.9568C56.0837 51.7588 57.3956 52.2363 59.0977 52.4209C59.6607 52.4819 61.111 52.4586 61.6709 52.3795ZM18.5202 54.6832C17.0022 54.5562 15.7066 54.2732 14.6048 53.8278C12.0988 52.8148 10.516 51.105 10.0864 48.9469C10.0044 48.5347 9.97309 47.6061 10.0263 47.1624C10.3365 44.5751 12.3503 42.5258 15.5341 41.5574C17.2284 41.0421 19.3139 40.8737 21.1859 41.1012C24.6155 41.518 27.2097 43.0231 28.35 45.2578C29.2785 47.0772 29.1607 49.2874 28.0446 50.9865C27.5418 51.7519 26.7142 52.5418 25.8612 53.0701C24.5342 53.892 22.9493 54.4034 21.0243 54.6305C20.6387 54.6761 18.8779 54.713 18.5202 54.6832ZM20.5503 52.4207C22.043 52.2707 23.2988 51.8673 24.2437 51.2344C25.0161 50.7169 25.6274 49.9543 25.9017 49.1658C26.0622 48.7043 26.094 48.4876 26.094 47.8569C26.094 47.2281 26.0627 47.0132 25.9034 46.5514C25.3797 45.0334 23.8484 43.9042 21.7086 43.4584C19.8325 43.0675 17.6445 43.2034 16.0236 43.8113C14.8541 44.25 13.931 44.96 13.3896 45.8373C12.8141 46.7701 12.6834 48.0406 13.0506 49.1356C13.4463 50.3154 14.4886 51.3027 15.9229 51.8565C16.7042 52.1581 17.6715 52.3684 18.6291 52.4445C18.9965 52.4737 20.1665 52.4592 20.5503 52.4207ZM79.5809 54.6842C79.521 54.6777 79.311 54.6579 79.1142 54.6403C77.5345 54.4986 75.8739 54.0265 74.6563 53.373C73.0104 52.4895 71.864 51.2337 71.3406 49.741C70.9864 48.731 70.926 47.5957 71.1707 46.5513C71.5408 44.972 72.5565 43.631 74.1338 42.6392C76.2139 41.3313 79.2724 40.7504 82.2248 41.1025C84.6777 41.395 86.6987 42.2441 88.1048 43.573C89.1758 44.585 89.7914 45.7709 89.9694 47.1643C90.0156 47.5264 90.0085 48.2587 89.9548 48.643C89.569 51.4098 87.2514 53.5246 83.7023 54.3484C82.6263 54.5982 81.9508 54.6739 80.6851 54.6862C80.1376 54.6915 79.6407 54.6906 79.5809 54.6842ZM81.4627 52.4344C83.3523 52.2699 84.8924 51.6805 85.881 50.7436C86.5504 50.1093 86.939 49.411 87.0921 48.567C87.1552 48.2192 87.1543 47.4942 87.0903 47.1335C86.7459 45.1915 84.9367 43.7838 82.2559 43.372C81.6123 43.2731 81.1842 43.2408 80.514 43.2408C77.5084 43.2408 75.1764 44.3134 74.2794 46.1083C74.0121 46.6433 73.8888 47.1954 73.8888 47.8569C73.8888 48.7299 74.1037 49.4222 74.5889 50.1121C75.4798 51.3785 77.1692 52.1876 79.4052 52.4187C79.8664 52.4664 80.9969 52.475 81.4628 52.4345L81.4627 52.4344Z" fill="white"/>
</svg>
