<svg width="185" height="196" viewBox="0 0 185 196" fill="none" xmlns="http://www.w3.org/2000/svg">
<path d="M154.944 165.944C171.318 149.57 171.318 123.022 154.944 106.648C138.57 90.2739 112.022 90.2739 95.6479 106.648C79.2738 123.022 79.2738 149.57 95.6479 165.944C112.022 182.318 138.57 182.318 154.944 165.944Z" fill="#F9A140"/>
<path opacity="0.1" d="M125.02 90.5902C99.7786 90.7428 79.4389 111.33 79.5934 136.571C79.746 161.812 100.334 182.152 125.575 181.997C150.815 181.845 171.155 161.257 171.001 136.016C170.848 110.775 150.261 90.4358 125.02 90.5902ZM125.529 174.321C104.527 174.449 87.3974 157.527 87.2696 136.526C87.1419 115.524 104.064 98.3942 125.065 98.2665C146.067 98.1387 163.197 115.061 163.323 136.062C163.45 157.064 146.528 174.193 125.527 174.319L125.529 174.321Z" fill="#272525"/>
<path d="M124.991 85.9023C97.1601 86.072 74.7359 108.769 74.9037 136.6C75.0735 164.431 97.7703 186.855 125.601 186.687C153.432 186.517 175.856 163.82 175.688 135.989C175.519 108.159 152.822 85.7345 124.991 85.9023ZM125.552 178.223C102.395 178.364 83.5088 159.707 83.3695 136.55C83.2284 113.394 101.886 94.5073 125.042 94.3681C148.199 94.227 167.085 112.885 167.225 136.041C167.366 159.197 148.708 178.084 125.552 178.223Z" fill="#F4D242"/>
<path d="M118.045 145.964L114.273 140.515H110.11V145.964H105.582V126.402H114.05C119.275 126.402 122.544 129.112 122.544 133.501C122.544 136.436 121.062 138.587 118.52 139.676L122.906 145.964H118.043H118.045ZM113.798 130.091H110.11V136.909H113.798C116.565 136.909 117.961 135.623 117.961 133.499C117.961 131.374 116.563 130.089 113.798 130.089V130.091Z" fill="#FFD300"/>
<path d="M124.36 144.568L125.813 141.439C127.154 142.304 129.194 142.892 131.039 142.892C133.051 142.892 133.806 142.362 133.806 141.522C133.806 139.064 124.724 141.578 124.724 135.57C124.724 132.719 127.295 130.707 131.683 130.707C133.75 130.707 136.043 131.182 137.467 132.021L136.014 135.124C134.532 134.285 133.052 134.006 131.683 134.006C129.726 134.006 128.889 134.62 128.889 135.404C128.889 137.975 137.971 135.488 137.971 141.412C137.971 144.206 135.372 146.191 130.873 146.191C128.33 146.191 125.758 145.493 124.362 144.57L124.36 144.568Z" fill="#FFD300"/>
<path d="M139.59 143.449C139.59 141.828 140.792 140.766 142.3 140.766C143.809 140.766 145.01 141.828 145.01 143.449C145.01 145.07 143.809 146.188 142.3 146.188C140.792 146.188 139.59 145.041 139.59 143.449Z" fill="#FFD300"/>
<path opacity="0.08" d="M112.5 112.5C133.211 91.7893 133.211 58.2107 112.5 37.5C91.7893 16.7893 58.2107 16.7893 37.5 37.5C16.7893 58.2107 16.7893 91.7893 37.5 112.5C58.2107 133.211 91.7893 133.211 112.5 112.5Z" fill="#272525"/>
<path d="M104.29 103.421C121.522 86.1891 121.522 58.2503 104.29 41.0182C87.0576 23.7861 59.1188 23.7861 41.8867 41.0182C24.6546 58.2503 24.6546 86.1891 41.8867 103.421C59.1188 120.653 87.0576 120.653 104.29 103.421Z" fill="#BABABA"/>
<path d="M72.7953 24.1201C46.2317 24.2806 24.8262 45.947 24.9888 72.5107C25.1493 99.0744 46.8157 120.48 73.3794 120.317C99.9431 120.157 121.349 98.4903 121.186 71.9266C121.025 45.363 99.359 23.9575 72.7953 24.1201V24.1201ZM73.3312 112.239C51.2293 112.373 33.2017 94.5645 33.0693 72.4625C32.9348 50.3606 50.7436 32.333 72.8455 32.2006C94.9475 32.0661 112.975 49.8749 113.107 71.9768C113.242 94.0788 95.4332 112.106 73.3312 112.239V112.239Z" fill="#68696B"/>
<path d="M72.7652 19.1865C43.4759 19.3652 19.8767 43.2514 20.0533 72.5407C20.232 101.83 44.1182 125.429 73.4075 125.253C102.697 125.074 126.296 101.188 126.119 71.8984C125.941 42.6091 102.055 19.0099 72.7652 19.1865V19.1865ZM73.3553 116.345C48.9854 116.494 29.1093 96.8584 28.9628 72.4885C28.8142 48.1186 48.4495 28.2445 72.8194 28.0959C97.1894 27.9474 117.065 47.5827 117.212 71.9526C117.36 96.3225 97.7252 116.199 73.3553 116.345Z" fill="#D2D2D2"/>
<path d="M65.4576 82.3957L61.4876 76.6615H57.1061V82.3957H52.3413V61.8091H61.2527C66.7521 61.8091 70.1923 64.6611 70.1923 69.2794C70.1923 72.3683 68.6328 74.6323 65.9573 75.7783L70.5736 82.3957H65.4556H65.4576ZM60.9878 65.6908H57.1061V72.8661H60.9878C63.9001 72.8661 65.3693 71.5133 65.3693 69.2774C65.3693 67.0415 63.8981 65.6888 60.9878 65.6888V65.6908Z" fill="#68696B"/>
<path d="M72.103 80.9248L73.6324 77.6312C75.0434 78.5424 77.191 79.1606 79.1318 79.1606C81.2493 79.1606 82.0441 78.6027 82.0441 77.7195C82.0441 75.1324 72.4864 77.7777 72.4864 71.4555C72.4864 68.4549 75.1919 66.3374 79.8102 66.3374C81.9859 66.3374 84.3984 66.8372 85.8977 67.7203L84.3683 70.9858C82.8088 70.1027 81.2513 69.8096 79.8102 69.8096C77.7509 69.8096 76.8698 70.4559 76.8698 71.2808C76.8698 73.9864 86.4275 71.3691 86.4275 77.6031C86.4275 80.5435 83.6919 82.6329 78.9572 82.6329C76.2818 82.6329 73.5742 81.8983 72.105 80.9269L72.103 80.9248Z" fill="#68696B"/>
<path d="M88.1295 79.7488C88.1295 78.0427 89.394 76.9248 90.9816 76.9248C92.5692 76.9248 93.8336 78.0427 93.8336 79.7488C93.8336 81.4548 92.5692 82.6309 90.9816 82.6309C89.394 82.6309 88.1295 81.4247 88.1295 79.7488Z" fill="#68696B"/>
<path d="M73.3054 170.892L62.7112 159.247C62.3737 158.877 61.7596 159.135 61.7863 159.634L62.141 166.233C52.8876 163.58 44.9939 157.895 39.7302 150.032C34.129 141.663 32.157 131.8 34.1557 122.201C34.2148 121.915 34.0374 121.635 33.7513 121.57L30.6942 120.887C30.4062 120.822 30.1182 121.005 30.0572 121.295C27.8087 132.023 29.9962 143.035 36.2421 152.364C42.1122 161.133 50.9251 167.448 61.2446 170.341L57.8824 177.176C57.6649 177.619 58.1131 178.094 58.567 177.901L73.1185 171.741C73.4561 171.598 73.5514 171.165 73.3054 170.892Z" fill="white"/>
<path d="M163.685 58.1024C157.117 49.8445 147.815 44.2738 137.292 42.235L140.095 35.1138C140.271 34.6675 139.798 34.2403 139.372 34.4634L125.328 41.8193C125.012 41.9852 124.955 42.4143 125.216 42.6584L136.769 53.4357C137.126 53.7694 137.704 53.47 137.637 52.9856L136.739 46.4021C146.179 48.2883 154.511 53.306 160.403 60.7133C166.673 68.5993 169.446 78.2723 168.237 88.0064C168.203 88.2886 168.397 88.548 168.679 88.588L171.807 89.021C172.093 89.061 172.358 88.8608 172.395 88.5747C173.76 77.6945 170.678 66.8924 163.687 58.1024H163.685Z" fill="white"/>
</svg>
