<svg width="100" height="100" viewBox="0 0 100 100" fill="none" xmlns="http://www.w3.org/2000/svg">
<rect width="100" height="100" rx="50" fill="#034EA2"/>
<g clip-path="url(#clip0_1023_16278)">
<path fill-rule="evenodd" clip-rule="evenodd" d="M53.603 49.5659C53.603 49.5659 52.8639 49.0553 52.4482 48.9021C52.4482 48.9021 51.0624 48.1872 50.7853 47.8808C50.7853 47.8808 50.231 47.3191 50.5543 46.6553C50.5543 46.6553 50.6929 46.2467 51.2472 46.2467C51.2472 46.2467 51.9863 46.2978 51.9863 46.9616V47.9318H54.6192V46.5531C54.6192 46.5531 54.804 44.2553 51.4782 44.1531C51.4782 44.1531 48.8452 43.9489 48.1061 45.5318C48.1061 45.5318 47.829 45.8893 47.829 47.0638V47.9318C47.829 47.9318 47.7828 48.9531 48.2447 49.5659C48.2447 49.5659 48.5218 49.9744 49.1685 50.485C49.1685 50.485 50.5081 51.251 51.2934 51.7106C51.2934 51.7106 52.0786 52.2212 51.9863 53.0382C51.9863 53.0382 51.9401 53.8553 51.1548 53.8042C51.1548 53.8042 50.4619 53.7531 50.4619 52.9872V52.017H47.6442V53.3957C47.6442 53.3957 47.5518 56.051 51.201 56.051C51.201 56.051 54.6654 56.1531 54.8502 53.3446V52.1701C54.804 52.1701 54.9426 50.434 53.603 49.5659Z" fill="white"/>
<path fill-rule="evenodd" clip-rule="evenodd" d="M40.0225 44.4082L39.1448 50.5359H38.9139L38.0824 44.4593H33.6479L33.4632 55.5912H36.0499L36.0961 47.2167H36.2809L37.6667 55.5912H40.4382L41.824 47.2167H42.0087L42.0549 55.5912H44.6879L44.4107 44.4082H40.0225Z" fill="white"/>
<path fill-rule="evenodd" clip-rule="evenodd" d="M24.4557 44.4595L22.7004 55.5914H25.5181L26.5343 46.9616H26.7653L27.8277 55.5914H30.6454L28.8901 44.4595H24.4557Z" fill="white"/>
<path fill-rule="evenodd" clip-rule="evenodd" d="M83.628 49.4126V51.0466H84.367V52.7828C84.367 53.6509 83.7204 53.6509 83.7204 53.6509C82.8889 53.6509 82.9351 52.8338 82.9351 52.8338V46.7572C82.9351 46.1445 83.6742 46.0934 83.6742 46.0934C84.367 46.0934 84.367 46.8594 84.367 46.8594V47.7785H87C87.0924 45.9913 86.769 45.5317 86.769 45.5317C86.1223 43.8977 83.628 43.9998 83.628 43.9998C79.794 43.9998 80.2097 47.2679 80.2097 47.2679V53.1402C80.3021 56.2041 84.0437 55.8977 84.1361 55.8977C85.799 55.6934 86.3071 55.0806 86.3071 55.0806C86.769 54.6721 86.9076 54.1615 86.9076 54.1615C87.0462 53.8551 87.0924 52.8849 87.0924 52.8849V49.4126H83.628Z" fill="white"/>
<path fill-rule="evenodd" clip-rule="evenodd" d="M74.8052 51.1997H74.7129L71.9875 44.4082H68.7541V55.5912H71.387L71.2484 48.7997H71.3408L74.1585 55.5912H77.2534V44.4082H74.6205L74.8052 51.1997Z" fill="white"/>
<path fill-rule="evenodd" clip-rule="evenodd" d="M62.3795 52.8337C62.3795 52.8337 62.4257 53.7529 61.6405 53.7529C61.6405 53.7529 60.809 53.8039 60.809 52.8337V44.4082H57.9451V52.7316C57.9451 52.7316 57.6679 55.8976 61.6866 55.8976C61.6866 55.8976 65.1973 55.9486 65.1973 52.8848V44.4082H62.3795V52.8337Z" fill="white"/>
<path fill-rule="evenodd" clip-rule="evenodd" d="M18.9588 49.5656C18.9588 49.5656 18.2197 49.055 17.8039 48.9018C17.8039 48.9018 16.4182 48.1869 16.141 47.8805C16.141 47.8805 15.5867 47.3188 15.9101 46.655C15.9101 46.655 16.0486 46.2464 16.603 46.2464C16.603 46.2464 17.342 46.2975 17.342 46.9613V47.9316H19.975V46.5528C19.975 46.5528 20.1598 44.255 16.8339 44.1528C16.8339 44.1528 16.603 44.1528 16.2334 44.1528C16.2334 44.1528 14.201 44.255 13.5081 45.4805C13.5081 45.4805 13.2309 45.8379 13.2309 47.0124V47.8805C13.2309 47.8805 13.1847 48.9018 13.6466 49.5145C13.6466 49.5145 13.9238 49.923 14.5705 50.4337C14.5705 50.4337 15.8639 51.1996 16.6953 51.6592C16.6953 51.6592 17.4806 52.1699 17.3882 52.9869C17.3882 52.9869 17.342 53.8039 16.5568 53.7528C16.5568 53.7528 15.8639 53.7018 15.8639 52.9358V51.9656H13V53.3443C13 53.3443 12.9076 55.9996 16.5568 55.9996C16.5568 55.9996 20.0212 56.1018 20.2059 53.2933V52.1699C20.1598 52.1699 20.2983 50.4337 18.9588 49.5656Z" fill="white"/>
</g>
<defs>
<clipPath id="clip0_1023_16278">
<rect width="74" height="12" fill="white" transform="translate(13 44)"/>
</clipPath>
</defs>
</svg>
