<svg width="100" height="100" viewBox="0 0 100 100" fill="none" xmlns="http://www.w3.org/2000/svg">
<rect width="100" height="100" rx="50" fill="#0072BC"/>
<path fill-rule="evenodd" clip-rule="evenodd" d="M69.7631 47.5979C70.3862 47.4733 74.74 47.5434 75.7369 47.5434C76.6326 47.5434 77.8242 47.4655 78.642 47.6758C82.8868 48.7662 82.8556 55.4176 78.2604 56.2043C77.5828 56.3211 73.3069 56.2588 72.271 56.2588C71.3987 56.2588 70.1292 56.3367 69.3659 56.1342C66.8736 55.4566 65.6975 52.7617 66.4841 50.3784C66.9436 48.9765 68.1119 47.9095 69.7631 47.5979ZM84.4211 52.7228C84.7249 49.9267 83.5176 47.6992 82.0067 46.4608C81.2044 45.7988 80.3321 45.3081 79.0704 45.0122C77.9956 44.7551 76.103 44.8642 74.8724 44.8642C73.4081 44.8642 71.9517 44.8642 70.4874 44.8642C69.0777 44.8564 68.0185 45.1757 66.9982 45.7676C62.6911 48.2366 62.4575 54.3039 66.0012 57.3414C68.2054 59.2184 70.3394 58.9458 73.1355 58.9458C74.592 58.9458 76.0562 58.9458 77.5127 58.9458C81.0409 58.9458 84.0239 56.4535 84.4211 52.7228ZM42.9472 46.7801C43.0251 47.2319 43.7572 48.1977 44.022 48.5793L47.4801 53.673C48.1577 54.6699 49.0924 56.1108 49.7933 57.0688C50.4943 58.0346 51.7015 59.0938 53.5552 59.0081C55.2842 58.9302 56.2578 57.8321 56.9977 56.7572C57.7532 55.6591 58.5165 54.5142 59.3109 53.3615L63.3531 47.411C64.1709 46.196 63.1428 44.872 61.959 45.0978C61.2113 45.2458 60.892 45.9156 60.5025 46.4998L58.2049 49.9033C57.4339 51.0093 56.6706 52.1776 55.8917 53.2914C55.4945 53.8599 55.1362 54.4129 54.739 54.9893C54.4197 55.4566 53.9057 56.3133 53.0333 56.103C52.3869 55.9472 51.9352 55.145 51.6158 54.6621C51.2264 54.0858 50.8681 53.5562 50.4631 52.9642C49.6921 51.8349 48.9599 50.7679 48.1577 49.5684C47.3789 48.4079 46.6545 47.3487 45.8523 46.1726C45.4941 45.6508 45.0891 44.9265 44.1077 45.0978C43.4067 45.2224 42.7992 45.9078 42.9472 46.7801ZM16.0145 46.7334C16.0846 47.2397 16.8167 48.1665 17.0815 48.5481L21.6923 55.3397C22.8372 57.0532 23.9432 59.1094 26.5757 59.0159C28.9902 58.9225 29.9949 56.8974 31.2255 55.0671L34.6914 49.9812C35.0574 49.4205 35.4469 48.8519 35.8441 48.2833C36.2802 47.6525 36.8176 47.0294 36.7242 46.3284C36.6151 45.6041 35.9531 44.9732 35.0886 45.09C34.3409 45.1991 34.0138 45.8455 33.6088 46.4608C32.8221 47.6447 32.1056 48.6728 31.3034 49.8566C30.5323 51.0015 29.7924 52.1231 28.998 53.2524C28.593 53.8288 28.2425 54.3662 27.8453 54.9503C27.5026 55.4332 27.0352 56.2744 26.1629 56.1186C25.4698 55.994 25.0803 55.1995 24.7143 54.6777C22.7983 51.9517 20.82 48.9687 18.943 46.1882C18.5613 45.6274 18.1641 44.9498 17.1983 45.0978C16.5052 45.1991 15.8977 45.8689 16.0145 46.7334ZM39.5826 45.1134C38.1651 45.4094 38.3909 46.6166 38.3909 48.0964V56.5236C38.3909 57.2323 38.2897 57.8788 38.6402 58.3928C39.3022 59.382 40.8599 59.1483 41.2026 58.019C41.335 57.575 41.2649 52.4658 41.2649 51.7726C41.2649 50.3784 41.2649 48.9687 41.2649 47.5668C41.2649 46.8502 41.3583 46.2349 41.0234 45.7131C40.7742 45.3315 40.229 44.9732 39.5826 45.1134ZM39.6371 40.0431C39.3956 40.1443 39.2477 40.3546 39.0763 40.526L38.0404 41.554C37.3628 42.2316 37.9158 42.4965 38.7648 43.3454C38.9439 43.5323 39.0997 43.6803 39.2788 43.8672C39.9564 44.5448 40.1979 44.0464 41.0857 43.1585C42.3163 41.9357 42.2774 42.1927 40.3692 40.2923C40.2056 40.1365 39.9876 39.9029 39.6371 40.0431Z" fill="white"/>
</svg>
