<svg width="100" height="100" viewBox="0 0 100 100" fill="none" xmlns="http://www.w3.org/2000/svg">
<rect width="100" height="100" rx="50" fill="#FF6700"/>
<path d="M78.0019 31.9997H70.3273C69.9986 31.9997 69.7325 32.2612 69.7325 32.5832V67.6019C69.7325 67.9212 69.9986 68.1826 70.3273 68.1826H78.0019C78.3277 68.1826 78.5975 67.9212 78.5975 67.6018V32.5832C78.5975 32.2612 78.3277 31.9997 78.0019 31.9997ZM51.7974 31.9997H22.5635C22.2349 31.9997 21.9707 32.2612 21.9707 32.5832V67.6019C21.9707 67.9212 22.2349 68.1826 22.5635 68.1826H30.24C30.5668 68.1826 30.8375 67.9212 30.8375 67.6018V40.1174C30.8375 39.8001 31.1017 39.5367 31.4303 39.5367H47.9661C52.6161 39.5367 53.9361 43.0984 53.9361 45.396V67.6019C53.9361 67.9212 54.2031 68.1826 54.5317 68.1826H62.2035C62.5303 68.1826 62.7983 67.9212 62.7983 67.6018V42.7596C62.7983 40.7103 62.5517 37.7638 59.908 35.1702C57.1419 32.4628 54.6185 31.9997 51.7974 31.9997" fill="white"/>
<path d="M46.4201 45.9479H38.3608C38.0322 45.9479 37.7625 46.2094 37.7625 46.5296V67.6048C37.7625 67.9232 38.0322 68.1846 38.3608 68.1846H46.4201C46.7459 68.1846 47.0129 67.9231 47.0129 67.6048V46.5296C47.0129 46.2093 46.7459 45.9479 46.4201 45.9479Z" fill="white"/>
</svg>
